<svg xmlns="http://www.w3.org/2000/svg" xmlns:xlink="http://www.w3.org/1999/xlink"><symbol id="close-button" viewBox="0 0 12 12">
<path fill-rule="evenodd" clip-rule="evenodd" d="M7.42618 6.00003L11.7046 1.72158C12.0985 1.32775 12.0985 0.689213 11.7046 0.295433C11.3108 -0.0984027 10.6723 -0.0984027 10.2785 0.295433L5.99998 4.57394L1.72148 0.295377C1.32765 -0.098459 0.68917 -0.098459 0.295334 0.295377C-0.0984448 0.689213 -0.0984448 1.32775 0.295334 1.72153L4.57383 5.99997L0.295334 10.2785C-0.0984448 10.6723 -0.0984448 11.3108 0.295334 11.7046C0.68917 12.0985 1.32765 12.0985 1.72148 11.7046L5.99998 7.42612L10.2785 11.7046C10.6723 12.0985 11.3108 12.0985 11.7046 11.7046C12.0985 11.3108 12.0985 10.6723 11.7046 10.2785L7.42618 6.00003Z" fill="#292929"/>
</symbol><symbol id="f-1" viewBox="0 0 40 26">
<path d="M39.315 0H0.684964C0.5033 0 0.329077 0.0732456 0.200621 0.203625C0.0721657 0.334003 0 0.510836 0 0.695219V25.3048C0 25.4892 0.0721657 25.666 0.200621 25.7964C0.329077 25.9268 0.5033 26 0.684964 26H39.315C39.4967 26 39.6709 25.9268 39.7994 25.7964C39.9278 25.666 40 25.4892 40 25.3048V0.695219C40 0.510836 39.9278 0.334003 39.7994 0.203625C39.6709 0.0732456 39.4967 0 39.315 0ZM32.5774 15.0331C32.6846 15.5259 32.7954 16.0355 32.6513 16.2882C32.4966 16.5596 31.9966 16.7173 31.5131 16.8699C31.1316 16.9902 30.7373 17.1147 30.3857 17.3212C30.0461 17.5206 29.7523 17.8001 29.4683 18.0704C29.0772 18.4426 28.7079 18.794 28.374 18.794C28.04 18.794 27.6706 18.4425 27.2797 18.0704C26.9956 17.8001 26.7018 17.5205 26.3622 17.3212C26.0107 17.1147 25.6163 16.9903 25.2348 16.8699C24.7513 16.7173 24.2513 16.5596 24.0967 16.2882C23.9526 16.0355 24.0633 15.5259 24.1705 15.0331C24.2584 14.6285 24.3493 14.2103 24.3493 13.7821C24.3493 13.354 24.2584 12.9356 24.1705 12.5311C24.0633 12.0383 23.9526 11.5288 24.0967 11.2759C24.2513 11.0046 24.7513 10.8468 25.2348 10.6942C25.6163 10.5739 26.0107 10.4494 26.3622 10.243C26.7018 10.0435 26.9956 9.76403 27.2797 9.49373C27.6706 9.12165 28.04 8.77015 28.374 8.77015C28.7079 8.77015 29.0773 9.12165 29.4683 9.49373C29.7523 9.76403 30.0461 10.0435 30.3857 10.243C30.7373 10.4493 31.1316 10.5738 31.5131 10.6941C31.9966 10.8467 32.4966 11.0045 32.6512 11.2758C32.7954 11.5286 32.6846 12.0381 32.5774 12.5309C32.4895 12.9354 32.3986 13.3537 32.3986 13.7819C32.3986 14.2102 32.4895 14.6286 32.5774 15.0331ZM30.5975 8.66076C30.5345 8.60237 30.4705 8.54156 30.4053 8.47955C29.8904 7.98955 29.2497 7.3798 28.374 7.3798C27.4982 7.3798 26.8575 7.98955 26.3426 8.47955C26.1045 8.70609 25.8796 8.92013 25.6761 9.03961C25.4574 9.168 25.1518 9.26449 24.8281 9.36655C24.1276 9.58763 23.3336 9.8381 22.9109 10.5797C22.5001 11.3004 22.6768 12.1134 22.8328 12.8307C22.9081 13.1777 22.9794 13.5055 22.9794 13.7821C22.9794 14.0587 22.9081 14.3866 22.8328 14.7336C22.6975 15.3556 22.5473 16.0496 22.7775 16.693L19.9997 19.5464L2.32449 1.39044H37.6748L30.5975 8.66076ZM11.7007 13L1.36993 23.6116V2.38812L11.7007 13ZM12.6635 13.989L19.5124 21.0242C19.5761 21.0896 19.6519 21.1416 19.7356 21.177C19.8192 21.2125 19.9089 21.2308 19.9996 21.2308C20.0902 21.2308 20.18 21.2125 20.2636 21.177C20.3472 21.1416 20.4231 21.0896 20.4868 21.0242L23.6841 17.7398C24.044 17.9494 24.4495 18.0781 24.8281 18.1976C25.1518 18.2997 25.4575 18.3962 25.6761 18.5245C25.8796 18.644 26.1044 18.8581 26.3426 19.0846C26.8575 19.5746 27.4982 20.1844 28.374 20.1844C29.2496 20.1844 29.8904 19.5746 30.4053 19.0846C30.6434 18.858 30.8682 18.644 31.0718 18.5244C31.2043 18.4466 31.3691 18.3806 31.5502 18.3179L37.675 24.6094H2.32431L12.6635 13.989ZM32.9664 17.7946C33.3117 17.6108 33.6223 17.3612 33.8371 16.9846C34.2479 16.2639 34.0711 15.4508 33.9151 14.7336C33.8398 14.3866 33.7686 14.0587 33.7686 13.7821C33.7686 13.5055 33.8398 13.1777 33.9151 12.8307C34.0711 12.1134 34.2479 11.3005 33.837 10.5797C33.4142 9.8381 32.6203 9.58763 31.9197 9.36655L31.8559 9.34634L38.6301 2.38738V23.6122L32.9664 17.7946Z" fill="#F1CDB3"/>
<path d="M28.374 10.2424C26.451 10.2424 24.8865 11.8302 24.8865 13.782C24.8865 15.7337 26.451 17.3215 28.374 17.3215C30.297 17.3215 31.8614 15.7337 31.8614 13.782C31.8614 11.8302 30.2969 10.2424 28.374 10.2424ZM28.374 15.9311C27.2064 15.9311 26.2564 14.967 26.2564 13.782C26.2564 12.5969 27.2063 11.6328 28.374 11.6328C29.5416 11.6328 30.4915 12.5969 30.4915 13.782C30.4915 14.967 29.5415 15.9311 28.374 15.9311Z" fill="#F1CDB3"/>
</symbol><symbol id="f-2" viewBox="0 0 40 32">
<path d="M39.9461 8.89543L37.5102 2.9049C37.4685 2.80251 37.4043 2.71139 37.3226 2.63868C37.2408 2.56598 37.1437 2.51367 37.0389 2.48585L34.111 1.70799C25.5388 -0.569376 14.4609 -0.569281 5.88906 1.70799L2.96105 2.48585C2.85626 2.51367 2.75918 2.56598 2.67743 2.63868C2.59568 2.71139 2.53147 2.80251 2.48984 2.9049L0.0539764 8.89543C-0.0131281 9.06038 -0.0178273 9.24503 0.0407965 9.41333L1.01509 12.2089C1.07166 12.3713 1.18339 12.5075 1.32986 12.5925C1.47633 12.6775 1.64776 12.7056 1.8128 12.6717L11.0692 10.7747C11.2084 10.7462 11.3359 10.675 11.4348 10.5706C11.5337 10.4661 11.5993 10.3334 11.623 10.19L12.4245 5.32594C16.8365 4.18994 23.1635 4.18994 27.5753 5.32594L28.3769 10.19C28.4006 10.3335 28.4662 10.4663 28.5651 10.5707C28.664 10.6751 28.7915 10.7463 28.9307 10.7748L38.187 12.6718C38.3521 12.7056 38.5234 12.6774 38.6699 12.5924C38.8164 12.5075 38.9281 12.3714 38.9848 12.209L39.9592 9.41343C40.0178 9.2451 40.0131 9.06043 39.9461 8.89543ZM2.13193 11.1412L1.63183 9.70624L10.5973 7.78606L10.321 9.46295L2.13193 11.1412ZM11.6222 4.0568C11.4935 4.09314 11.3777 4.16636 11.2883 4.26784C11.1989 4.36933 11.1396 4.49486 11.1174 4.62969L10.848 6.26453L1.85991 8.1896L3.65015 3.78707L6.2409 3.09877C14.5991 0.878304 25.4007 0.878208 33.7593 3.09877L36.35 3.78707L38.1403 8.1896L29.1522 6.26453L28.8828 4.62969C28.8606 4.49487 28.8013 4.36936 28.7119 4.26788C28.6224 4.1664 28.5066 4.09318 28.378 4.0568C23.6016 2.70615 16.3984 2.70615 11.6222 4.0568ZM37.8681 11.1412L29.6792 9.46295L29.4028 7.78606L38.3682 9.70624L37.8681 11.1412Z" fill="#F1CDB3"/>
<path d="M33.2901 13.1186C33.261 12.9842 33.1948 12.8612 33.0995 12.7643C33.0041 12.6673 32.8836 12.6005 32.7522 12.5717L27.9776 11.526L27.3764 7.51395C27.351 7.34431 27.2672 7.18959 27.1401 7.07781C27.013 6.96603 26.851 6.90458 26.6835 6.90458H24.814V5.96398C24.814 5.56724 24.5002 5.2456 24.1129 5.2456C23.7257 5.2456 23.4119 5.56724 23.4119 5.96398V6.90458H16.5882V5.96398C16.5882 5.56724 16.2744 5.2456 15.8871 5.2456C15.4999 5.2456 15.1861 5.56724 15.1861 5.96398V6.90458H13.3166C13.1491 6.90458 12.9871 6.96603 12.86 7.07781C12.7329 7.18959 12.6491 7.34431 12.6237 7.51395L12.0224 11.526L7.24791 12.5717C7.11654 12.6005 6.996 12.6673 6.90063 12.7643C6.80527 12.8612 6.73908 12.9842 6.70996 13.1186L3.46796 28.0878C3.45692 28.1389 3.45134 28.1911 3.45132 28.2434V31.2816C3.45132 31.4721 3.52519 31.6549 3.65666 31.7896C3.78814 31.9243 3.96645 32 4.15239 32H35.8477C36.0336 32 36.212 31.9243 36.3434 31.7896C36.4749 31.6549 36.5488 31.4721 36.5488 31.2816V28.2434C36.5488 28.1911 36.5432 28.1389 36.5321 28.0878L33.2901 13.1186ZM7.98131 13.8802L12.7885 12.8273C12.9276 12.7968 13.0544 12.7238 13.152 12.6178C13.2496 12.5118 13.3134 12.3779 13.335 12.2338L13.9183 8.34134H26.0819L26.6651 12.2338C26.6867 12.3779 26.7505 12.5118 26.8481 12.6178C26.9457 12.7238 27.0725 12.7968 27.2115 12.8273L32.0189 13.8802L34.9741 27.5251H5.0261L7.98131 13.8802ZM11.7966 28.9618L10.8935 30.5632H9.82782L10.7309 28.9618H11.7966ZM13.416 28.9618H28.6721L27.769 30.5632H12.513L13.416 28.9618ZM4.85345 28.9618H9.11142L8.20836 30.5632H4.85345V28.9618ZM29.3885 30.5632L30.2916 28.9618H35.1466V30.5632H29.3885Z" fill="#F1CDB3"/>
<path d="M20 26.1606C24.1492 26.1606 27.5248 22.7016 27.5248 18.45C27.5248 14.1983 24.1492 10.7393 20 10.7393C15.8509 10.7393 12.4753 14.1983 12.4753 18.45C12.4753 22.7016 15.8509 26.1606 20 26.1606ZM20 12.1761C23.3761 12.1761 26.1227 14.9905 26.1227 18.45C26.1227 21.9094 23.3761 24.7238 20 24.7238C16.624 24.7238 13.8774 21.9094 13.8774 18.45C13.8774 14.9905 16.624 12.1761 20 12.1761Z" fill="#F1CDB3"/>
<path d="M20 21.1847C21.4717 21.1847 22.6691 19.9578 22.6691 18.4497C22.6691 16.9416 21.4717 15.7147 20 15.7147C18.5283 15.7147 17.3309 16.9416 17.3309 18.4497C17.3309 19.9578 18.5283 21.1847 20 21.1847ZM20 17.1514C20.6987 17.1514 21.267 17.7338 21.267 18.4497C21.267 19.1656 20.6987 19.7479 20 19.7479C19.3014 19.7479 18.733 19.1656 18.733 18.4497C18.733 17.7339 19.3014 17.1514 20 17.1514Z" fill="#F1CDB3"/>
</symbol><symbol id="f-3" viewBox="0 0 22 32">
<path d="M11 0C4.93471 0 0 4.78519 0 10.6667C0 12.4323 0.455231 14.1829 1.32064 15.7357L10.3985 31.6562C10.5193 31.8685 10.7496 32 11 32C11.2504 32 11.4807 31.8685 11.6015 31.6562L20.6827 15.7304C21.5448 14.1829 22 12.4323 22 10.6666C22 4.78519 17.0653 0 11 0ZM19.4762 15.0905L11 29.9557L2.52714 15.0964C1.77317 13.7435 1.37504 12.2116 1.37504 10.6667C1.37504 5.52019 5.69275 1.33337 11 1.33337C16.3073 1.33337 20.625 5.52025 20.625 10.6667C20.625 12.2116 20.2268 13.7435 19.4762 15.0905Z" fill="#F1CDB3"/>
<path d="M11 5.33329C7.96737 5.33329 5.50005 7.72585 5.50005 10.6666C5.50005 13.6074 7.96737 16 11 16C14.0327 16 16.5 13.6074 16.5 10.6667C16.5 7.72592 14.0327 5.33329 11 5.33329ZM11 14.6667C8.72534 14.6667 6.87502 12.8724 6.87502 10.6667C6.87502 8.46092 8.72534 6.66667 11 6.66667C13.2747 6.66667 15.125 8.46092 15.125 10.6667C15.125 12.8724 13.2747 14.6667 11 14.6667Z" fill="#F1CDB3"/>
</symbol><symbol id="card" viewBox="0 0 30 23">
<path d="M25.9815 23H4.01915C1.80285 23 0 21.2046 0 19.0001V3.9999C0 1.79421 1.80285 0 4.01915 0H25.9808C28.196 0 30 1.79421 30 3.9999V19.0001C30.0006 21.2052 28.1972 23 25.9815 23ZM4.01915 1.14285C2.43563 1.14285 1.14836 2.42396 1.14836 3.9999V19.0001C1.14836 20.5755 2.43563 21.8571 4.01915 21.8571H25.9808C27.5638 21.8571 28.8516 20.5755 28.8516 19.0001V3.9999C28.8516 2.42396 27.5638 1.14285 25.9808 1.14285H4.01915ZM20.7037 3.35993C22.1363 3.35993 23.2977 4.51532 23.2977 5.94153C23.2977 7.36774 22.1368 8.52376 20.7037 8.52376C19.2706 8.52376 18.1097 7.36783 18.1097 5.94153C18.1097 4.51523 19.2712 3.35993 20.7037 3.35993ZM24.3204 3.35993C25.7529 3.35993 26.9151 4.51532 26.9151 5.94153C26.9151 7.36774 25.7536 8.52376 24.3204 8.52376C22.8873 8.52376 21.7264 7.36783 21.7264 5.94153C21.7264 4.51523 22.8879 3.35993 24.3204 3.35993ZM3.0861 16.3339H7.8683V18.0481H3.0861V16.3339ZM9.43467 16.3339H14.2175V18.0481H9.43467V16.3339ZM15.782 16.3339H20.5659V18.0481H15.782V16.3339ZM22.1305 16.3339H26.9144V18.0481H22.1305V16.3339ZM3.0861 3.36046H12.1263V5.07474H3.0861V3.36046ZM3.0861 6.76208H7.86946V8.47637H3.0861V6.76208Z" fill="#292929"/>
</symbol><symbol id="h-1" viewBox="0 0 48 60">
<path d="M46.8979 25.4978L41.1429 9.7473V1.42852C41.1429 0.639609 40.5032 0 39.7144 0H8.28585C7.49694 0 6.85734 0.639727 6.85734 1.42852V9.74719L1.10214 25.4978C0.419274 27.3636 0.0703893 29.3351 0.0714747 31.3219V55.0765C0.0714747 57.7912 2.28011 60 4.99499 60H43.005C45.7199 60 47.9285 57.7912 47.9285 55.0765V31.3219C47.9285 29.329 47.5818 27.3694 46.8979 25.4978ZM9.71425 2.85715H38.2857V8.57145H9.71425V2.85715ZM45.0715 50.1321H24.9077C24.1188 50.1321 23.4792 50.7718 23.4792 51.5606C23.4792 52.3495 24.1189 52.9891 24.9077 52.9891H45.0715V55.0763C45.0715 56.2157 44.1445 57.1427 43.005 57.1427H4.99499C3.85558 57.1427 2.92862 56.2158 2.92862 55.0763V31.3219C2.92774 29.6695 3.21788 28.03 3.78573 26.4783L9.28476 11.4286H38.7152L44.2143 26.4783C44.7821 28.03 45.0722 29.6695 45.0714 31.3219L45.0715 50.1321Z" fill="#F1CDB3"/>
<path d="M29.6169 33.805C29.1505 30.8772 26.6078 28.632 23.5505 28.632C20.4932 28.632 17.9504 30.8772 17.484 33.805C15.067 34.7989 13.4857 37.2756 13.6898 39.9659C13.9175 42.9637 16.3506 45.3921 19.3489 45.6148C20.5071 45.7011 21.6572 45.4628 22.6751 44.9259C23.2315 44.6328 23.8697 44.6326 24.4256 44.926C25.3085 45.3908 26.2914 45.6331 27.2891 45.632C27.4428 45.632 27.5974 45.6263 27.7516 45.6149C30.7502 45.3923 33.1832 42.9638 33.411 39.966C33.6152 37.2756 32.0339 34.7989 29.6169 33.805ZM30.562 39.7495C30.4405 41.35 29.1415 42.6466 27.5402 42.7655C26.9176 42.8126 26.3013 42.6851 25.7586 42.3986C25.078 42.0394 24.3201 41.8517 23.5506 41.8517C22.781 41.8517 22.0231 42.0394 21.3425 42.3986C20.7998 42.6849 20.1848 42.8123 19.5608 42.7655C17.9597 42.6467 16.6605 41.3501 16.5391 39.7495C16.4143 38.1062 17.5296 36.6124 19.1331 36.2746C19.4587 36.206 19.7503 36.0259 19.9573 35.7653C20.1643 35.5047 20.2739 35.18 20.2671 34.8473L20.2648 34.775C20.2648 32.9632 21.7386 31.4893 23.5505 31.4893C25.3623 31.4893 26.8362 32.9632 26.8362 34.7698L26.8339 34.8473C26.827 35.1801 26.9366 35.5048 27.1436 35.7654C27.3507 36.026 27.6422 36.2061 27.968 36.2746C29.5717 36.6124 30.6868 38.1062 30.562 39.7495Z" fill="#F1CDB3"/>
<path d="M23.5506 25.7751C26.1108 25.7751 28.1934 23.6924 28.1934 21.1322C28.1934 18.572 26.1108 16.4893 23.5506 16.4893C20.9904 16.4893 18.9077 18.5721 18.9077 21.1322C18.9077 23.6923 20.9906 25.7751 23.5506 25.7751ZM23.5506 19.3465C24.5353 19.3465 25.3363 20.1475 25.3363 21.1322C25.3363 22.1169 24.5353 22.9179 23.5506 22.9179C22.5658 22.9179 21.7649 22.1169 21.7649 21.1322C21.7649 20.1475 22.566 19.3465 23.5506 19.3465Z" fill="#F1CDB3"/>
<path d="M18.1935 26.6561C18.1935 24.0959 16.1107 22.0132 13.5506 22.0132C10.9905 22.0132 8.90777 24.096 8.90777 26.6561C8.90777 29.2162 10.9904 31.2989 13.5506 31.2989C16.1108 31.2989 18.1935 29.2162 18.1935 26.6561ZM13.5506 28.4418C12.5659 28.4418 11.7649 27.6408 11.7649 26.6561C11.7649 25.6714 12.5659 24.8704 13.5506 24.8704C14.5353 24.8704 15.3363 25.6714 15.3363 26.6561C15.3363 27.6408 14.5352 28.4418 13.5506 28.4418Z" fill="#F1CDB3"/>
<path d="M33.5505 22.0131C30.9903 22.0131 28.9077 24.0959 28.9077 26.656C28.9077 29.216 30.9906 31.2988 33.5505 31.2988C36.1107 31.2988 38.1934 29.2162 38.1934 26.656C38.1934 24.0958 36.1107 22.0131 33.5505 22.0131ZM33.5505 28.4418C32.5658 28.4418 31.7648 27.6408 31.7648 26.6561C31.7648 25.6714 32.5659 24.8704 33.5505 24.8704C34.5353 24.8704 35.3362 25.6714 35.3362 26.6561C35.3362 27.6408 34.5353 28.4418 33.5505 28.4418Z" fill="#F1CDB3"/>
<path d="M18.6934 50.1322H18.3465C17.5576 50.1322 16.918 50.7719 16.918 51.5607C16.918 52.3496 17.5577 52.9892 18.3465 52.9892H18.6934C19.4823 52.9892 20.1219 52.3495 20.1219 51.5607C20.122 50.7719 19.4824 50.1322 18.6934 50.1322Z" fill="#F1CDB3"/>
</symbol><symbol id="h-2" viewBox="0 0 60 60">
<path d="M55.0514 12.7115H48.0284V12.5095C48.0284 8.87665 45.073 5.92118 41.4402 5.92118C37.8073 5.92118 34.8519 8.87665 34.8519 12.5095V12.7115H26.6041C23.8884 12.7115 21.6791 14.9209 21.6791 17.6365V23.2009H14.2928C12.5308 23.2009 10.9646 24.2562 10.3028 25.8893C10.2932 25.9133 10.2843 25.9375 10.2761 25.962L6.01507 38.8689C5.9764 38.8919 5.92706 38.9191 5.86566 38.9498C5.62203 39.0714 5.16628 39.2568 4.38206 39.4484C3.13761 39.7499 2.0309 40.4616 1.24022 41.4688C0.449549 42.4759 0.0209608 43.72 0.0235098 45.0004V51.0987C0.0235098 53.1406 1.68464 54.8018 3.72652 54.8018L8.95074 54.802C9.50234 57.7562 12.0984 59.9999 15.2102 59.9999C18.3219 59.9999 20.9179 57.7561 21.4696 54.8021L39.8942 54.8024C40.4459 57.7564 43.0419 59.9999 46.1536 59.9999C49.2651 59.9999 51.8611 57.7565 52.4129 54.8026L55.7306 54.8027C58.2702 54.8027 59.9764 53.0963 59.9764 50.5568V20.08C59.9764 13.4295 56.5321 12.7115 55.0514 12.7115ZM37.1956 12.5095C37.1956 10.169 39.0997 8.26493 41.4402 8.26493C43.7806 8.26493 45.6847 10.169 45.6847 12.5095V12.7115H37.1956V12.5095ZM12.4883 26.7379C12.638 26.3833 12.8892 26.0809 13.2102 25.8686C13.5312 25.6563 13.9078 25.5436 14.2927 25.5447H21.6789V38.8266H8.49722L12.4883 26.7379ZM15.2102 57.6562C12.9905 57.6562 11.1847 55.8504 11.1847 53.6307C11.1847 53.6033 11.1862 53.5762 11.1868 53.5488C11.1876 53.5069 11.1878 53.465 11.19 53.4234C11.1903 53.4168 11.1911 53.4104 11.1915 53.4038C11.3096 51.2894 13.0669 49.6052 15.2102 49.6052C17.1496 49.6052 18.7732 50.9841 19.152 52.8129L19.1537 52.82C19.1664 52.882 19.1775 52.9445 19.1873 53.0076L19.1892 53.018C19.1962 53.0638 19.2014 53.1101 19.2068 53.1564C19.2092 53.1775 19.2126 53.1983 19.2147 53.2194C19.2184 53.2554 19.2203 53.2921 19.223 53.3285C19.2254 53.3602 19.2287 53.3916 19.2303 53.4235C19.2319 53.4563 19.2319 53.4896 19.2328 53.5226C19.2337 53.5586 19.2355 53.5944 19.2355 53.6306C19.2357 55.8504 17.4298 57.6562 15.2102 57.6562ZM46.1536 57.6562C43.9339 57.6562 42.128 55.8504 42.128 53.6307C42.128 53.5783 42.13 53.5263 42.132 53.4743C42.1326 53.4576 42.1325 53.4405 42.1333 53.4238C42.1353 53.3852 42.1391 53.3471 42.1421 53.3088C42.1445 53.2791 42.1459 53.2491 42.1489 53.2196C42.1502 53.207 42.1523 53.1947 42.1536 53.1823C42.1672 53.06 42.1856 52.939 42.21 52.8203C42.2107 52.8168 42.2116 52.8134 42.2124 52.8099C42.5925 50.9826 44.215 49.6053 46.1536 49.6053C46.7084 49.6053 47.2375 49.7181 47.7189 49.9222C49.1633 50.5341 50.1789 51.966 50.1789 53.6308C50.1789 55.8504 48.3732 57.6562 46.1536 57.6562ZM55.7306 52.4588L52.4148 52.4587C52.4109 52.4379 52.4059 52.4175 52.4018 52.3968C52.3742 52.2591 52.3424 52.1222 52.3065 51.9864C52.2905 51.927 52.2737 51.8679 52.256 51.809C52.245 51.7724 52.2342 51.7358 52.2227 51.6994C52.203 51.6382 52.1823 51.5772 52.1607 51.5166C52.1492 51.4842 52.1383 51.4513 52.1262 51.4191C52.1001 51.3492 52.0727 51.2799 52.044 51.211C52.035 51.1892 52.0268 51.1669 52.0175 51.1452C51.9788 51.0542 51.938 50.9641 51.8952 50.875C51.8898 50.8639 51.8839 50.8532 51.8785 50.8422C51.8411 50.7656 51.8022 50.6897 51.7618 50.6146C51.7469 50.5871 51.7311 50.5602 51.7159 50.5329C51.6837 50.4749 51.6506 50.4175 51.6166 50.3606C51.5981 50.3297 51.5789 50.2995 51.5598 50.2689C51.5075 50.1846 51.4531 50.1016 51.3965 50.0201C51.3409 49.9395 51.2835 49.8602 51.2243 49.7821C51.1873 49.7337 51.1496 49.6858 51.1113 49.6385C51.0884 49.6102 51.0659 49.5819 51.0426 49.554C51.0009 49.5043 50.9584 49.4553 50.9152 49.4069C50.8939 49.383 50.8732 49.3585 50.8515 49.3349C50.7977 49.2763 50.7428 49.2188 50.6868 49.1623C50.6748 49.1501 50.6633 49.1374 50.6511 49.1253C50.582 49.0563 50.5114 48.989 50.4392 48.9233C50.4239 48.9092 50.4078 48.896 50.3922 48.882C50.3357 48.8315 50.2786 48.7815 50.2202 48.7329C50.1946 48.7116 50.1683 48.6912 50.1424 48.6704C50.093 48.6304 50.043 48.5911 49.9925 48.5525C49.9627 48.53 49.9326 48.5081 49.9025 48.4861C49.7751 48.3927 49.6442 48.3043 49.51 48.221C49.4772 48.2004 49.4443 48.1802 49.411 48.1602C49.3591 48.1292 49.3066 48.0993 49.2537 48.0698C49.2213 48.0516 49.1889 48.0331 49.1561 48.0155C49.0987 47.9847 49.0405 47.9553 48.982 47.9262C48.9529 47.9117 48.9242 47.8966 48.8949 47.8826C48.8183 47.8461 48.741 47.8111 48.663 47.7776C48.6511 47.7725 48.6393 47.7667 48.6273 47.7616C48.5366 47.7233 48.445 47.6871 48.3526 47.6531C48.3262 47.6433 48.2994 47.6348 48.2728 47.6254C48.2064 47.602 48.14 47.5789 48.0727 47.5575C48.0375 47.5464 48.0018 47.5363 47.9663 47.5258C47.9067 47.5081 47.8469 47.4906 47.7866 47.4746C47.7479 47.4643 47.709 47.4549 47.67 47.4453C47.5715 47.421 47.4724 47.3992 47.3729 47.3798C47.3139 47.3684 47.2548 47.3578 47.1955 47.348C47.1548 47.3413 47.1141 47.3345 47.0732 47.3287C47.0116 47.3199 46.9498 47.3121 46.888 47.3051C46.8487 47.3006 46.8096 47.2956 46.7701 47.2919C46.7015 47.2856 46.6329 47.2803 46.5642 47.2762C46.5305 47.2741 46.4973 47.271 46.4635 47.2694C46.3602 47.2643 46.2568 47.2617 46.1534 47.2615C46.0495 47.2615 45.9461 47.2645 45.8434 47.2694C45.8096 47.271 45.7762 47.2741 45.7426 47.2762C45.6738 47.2806 45.6051 47.2853 45.5369 47.2919C45.4973 47.2958 45.4582 47.3007 45.4188 47.3052C45.3569 47.3124 45.2952 47.3199 45.2339 47.3288C45.1928 47.3348 45.152 47.3415 45.1112 47.3483C45.0111 47.3649 44.9114 47.3838 44.8121 47.4049C44.7538 47.4175 44.6956 47.431 44.6376 47.4453C44.5982 47.4549 44.559 47.4645 44.52 47.4748C44.4602 47.4906 44.401 47.5079 44.342 47.5254C44.3059 47.5362 44.2695 47.5464 44.2337 47.5578C44.168 47.5788 44.1026 47.601 44.0376 47.6242C44.0097 47.6341 43.9815 47.6431 43.9537 47.6534C43.8616 47.6874 43.7704 47.7233 43.6804 47.7613C43.6655 47.7677 43.651 47.7747 43.6361 47.7812C43.561 47.8136 43.4865 47.847 43.4129 47.8822C43.3818 47.897 43.3515 47.913 43.3207 47.9283C43.2642 47.9566 43.2077 47.9849 43.1521 48.0147C43.1178 48.0331 43.0839 48.0524 43.05 48.0715C42.9988 48.1001 42.948 48.1293 42.8976 48.1592C42.7791 48.2304 42.6628 48.3051 42.5489 48.3833C42.5015 48.416 42.4546 48.4494 42.4081 48.4835C42.3761 48.5068 42.344 48.53 42.3125 48.5539C42.2643 48.5904 42.2171 48.6281 42.17 48.6659C42.1416 48.6888 42.1129 48.711 42.0849 48.7343C42.0308 48.7795 41.9778 48.826 41.9252 48.8727C41.9056 48.8901 41.8856 48.9069 41.8662 48.9244C41.7951 48.9892 41.7255 49.0556 41.6574 49.1235C41.6402 49.1406 41.6239 49.1587 41.6068 49.176C41.5563 49.2276 41.5061 49.2795 41.4573 49.3328C41.4329 49.3595 41.4093 49.387 41.3854 49.414C41.3452 49.4594 41.3053 49.5049 41.2664 49.5514C41.2411 49.5817 41.2164 49.6126 41.1917 49.6434C41.1556 49.6881 41.12 49.7331 41.0851 49.7788C41.0014 49.889 40.9212 50.0018 40.8445 50.1169C40.8125 50.165 40.7816 50.2137 40.751 50.2627C40.73 50.2962 40.7088 50.3296 40.6885 50.3635C40.6569 50.4161 40.6266 50.4695 40.5966 50.5232C40.5791 50.5545 40.5609 50.5854 40.5438 50.6172C40.5077 50.684 40.4734 50.752 40.4397 50.8202C40.4302 50.8394 40.42 50.858 40.4108 50.8774C40.3686 50.965 40.3285 51.0536 40.2904 51.143C40.2788 51.1703 40.2684 51.1982 40.2571 51.2258C40.2313 51.2889 40.2057 51.3523 40.1818 51.4165C40.1684 51.4524 40.1564 51.4887 40.1436 51.5247C40.1234 51.5817 40.104 51.6389 40.0854 51.6964C40.0728 51.7355 40.0612 51.7751 40.0494 51.8146C40.0206 51.911 39.9941 52.008 39.97 52.1056C39.9561 52.162 39.9431 52.2187 39.9307 52.2758C39.9216 52.3171 39.9127 52.3585 39.9045 52.4001C39.9007 52.4198 39.8959 52.4391 39.8922 52.4588L21.4711 52.4585C21.4672 52.4382 21.4624 52.4181 21.4584 52.3979C21.4505 52.3578 21.4419 52.3181 21.4333 52.2783C21.3993 52.1215 21.3592 51.9659 21.3132 51.8122C21.3018 51.774 21.2905 51.7358 21.2784 51.6978C21.2594 51.6389 21.2396 51.5804 21.2189 51.5221C21.2066 51.4872 21.1947 51.452 21.1818 51.4174C21.1574 51.3522 21.1318 51.2875 21.1051 51.2232C21.0943 51.1967 21.0842 51.1697 21.073 51.1435C21.0348 51.0538 20.9946 50.965 20.9523 50.8771C20.9437 50.8594 20.9343 50.8423 20.9257 50.8247C20.8914 50.7548 20.8559 50.6855 20.819 50.6169C20.8024 50.5859 20.7846 50.5556 20.7673 50.525C20.7369 50.4707 20.7063 50.4166 20.6743 50.3634C20.6541 50.3297 20.6332 50.2968 20.6124 50.2636C20.5817 50.2143 20.5504 50.1654 20.5183 50.1169C20.4416 50.0019 20.3614 49.8893 20.2778 49.7792C20.243 49.7335 20.2074 49.6885 20.1713 49.6438C20.1465 49.613 20.1218 49.582 20.0964 49.5516C20.0575 49.5055 20.018 49.4598 19.9778 49.4147C19.9537 49.3876 19.93 49.3599 19.9055 49.3331C19.8573 49.2803 19.8076 49.2289 19.7575 49.1778C19.74 49.1599 19.7232 49.1413 19.7054 49.1238C19.6374 49.0559 19.5679 48.9897 19.4969 48.925C19.4772 48.907 19.4566 48.89 19.4367 48.8722C19.3846 48.8255 19.3318 48.7798 19.2782 48.7349C19.2499 48.7114 19.2208 48.6888 19.1921 48.6657C19.1455 48.6282 19.0986 48.5908 19.0508 48.5546C19.019 48.5304 18.9867 48.5071 18.9544 48.4836C18.9082 48.4497 18.8615 48.4165 18.8144 48.3838C18.7338 48.3285 18.6519 48.2749 18.5689 48.2232C18.5345 48.2016 18.4998 48.1803 18.465 48.1594C18.4149 48.1296 18.3644 48.1006 18.3136 48.0722C18.2793 48.053 18.2452 48.0336 18.2105 48.0151C18.1552 47.9856 18.0995 47.957 18.0433 47.9293C18.0121 47.9137 17.9813 47.8975 17.9498 47.8824C17.8771 47.8478 17.8037 47.8146 17.7297 47.7827C17.7139 47.7758 17.6984 47.7683 17.6825 47.7615C17.5924 47.7234 17.5014 47.6875 17.4096 47.6536C17.3813 47.6432 17.3526 47.6341 17.3241 47.624C17.2596 47.601 17.1948 47.579 17.1296 47.558C17.0935 47.5465 17.0568 47.5362 17.0204 47.5254C16.9616 47.5078 16.9026 47.491 16.8433 47.4751C16.8041 47.4646 16.7646 47.455 16.7251 47.4454C16.5687 47.4067 16.4109 47.3743 16.2519 47.3484C16.2111 47.3417 16.1703 47.3349 16.1292 47.3289C16.0676 47.3202 16.0059 47.3123 15.9441 47.3054C15.9049 47.3008 15.8657 47.2959 15.8262 47.292C15.7577 47.2857 15.6891 47.2805 15.6203 47.2763C15.5867 47.2742 15.5534 47.2711 15.5197 47.2695C15.4164 47.2644 15.313 47.2618 15.2096 47.2617C15.1057 47.2617 15.0024 47.2646 14.8995 47.2695C14.8658 47.2711 14.8324 47.2742 14.7987 47.2763C14.73 47.2808 14.6613 47.2854 14.5931 47.292C14.5535 47.2959 14.5142 47.3008 14.4748 47.3054C14.4132 47.3123 14.3516 47.3202 14.2902 47.3289C14.2489 47.3349 14.208 47.3417 14.1671 47.3484C14.067 47.3648 13.9673 47.3837 13.8682 47.405C13.81 47.4175 13.7523 47.431 13.6946 47.4452C13.6549 47.4549 13.615 47.4646 13.5757 47.4751C13.5168 47.4909 13.4582 47.5076 13.3999 47.5251C13.3631 47.536 13.326 47.5465 13.2895 47.558C13.225 47.5784 13.1613 47.6007 13.0977 47.6231C13.0682 47.6334 13.0386 47.6429 13.0094 47.6536C12.9178 47.6875 12.8271 47.7231 12.7375 47.761C12.7194 47.7687 12.7017 47.7773 12.6836 47.7851C12.612 47.8162 12.5408 47.8481 12.4705 47.8817C12.4377 47.8974 12.4055 47.9143 12.373 47.9306C12.3182 47.9577 12.2638 47.9855 12.2098 48.0142C12.1742 48.0333 12.1392 48.0534 12.1039 48.0732C12.0542 48.1011 12.0046 48.1292 11.9558 48.1585C11.8722 48.2086 11.7897 48.2604 11.7084 48.3141C11.6732 48.3373 11.6383 48.3608 11.6036 48.3847C11.5577 48.4163 11.5125 48.4488 11.4673 48.4816C11.4339 48.506 11.4003 48.5302 11.3674 48.5553C11.3213 48.5903 11.2761 48.6263 11.231 48.6625C11.2006 48.6869 11.1699 48.7107 11.1402 48.7356C11.0894 48.7778 11.04 48.8214 10.9906 48.8651C10.9677 48.8854 10.9442 48.9051 10.9215 48.9257C10.8513 48.9898 10.7825 49.0554 10.7151 49.1225C10.6943 49.1433 10.6743 49.1651 10.6537 49.1862C10.6069 49.2342 10.5604 49.2822 10.5152 49.3315C10.4888 49.3602 10.4635 49.3899 10.4377 49.4191C10.3995 49.4623 10.3614 49.5056 10.3245 49.5499C10.2978 49.5817 10.2718 49.6143 10.2458 49.6468C10.2111 49.6897 10.177 49.7331 10.1435 49.777C10.0846 49.8544 10.0274 49.9332 9.97203 50.0132C9.94769 50.0482 9.92371 50.0835 9.90007 50.1189C9.86925 50.1653 9.83949 50.2123 9.80984 50.2594C9.78781 50.2946 9.76566 50.3295 9.74433 50.3651C9.71398 50.4156 9.68503 50.467 9.65609 50.5183C9.63734 50.5517 9.618 50.5847 9.59972 50.6185C9.56596 50.6817 9.53326 50.7454 9.50164 50.8097C9.49015 50.8327 9.47796 50.8552 9.46683 50.8784C9.42511 50.9651 9.38539 51.0529 9.34753 51.1417C9.33464 51.172 9.32316 51.2028 9.31074 51.2333C9.28613 51.2936 9.26163 51.354 9.2389 51.4151C9.22496 51.4525 9.2123 51.4904 9.19906 51.5281C9.1796 51.5835 9.16039 51.639 9.14246 51.695C9.12957 51.7352 9.11761 51.7757 9.10554 51.8163C9.08925 51.871 9.07343 51.9258 9.05855 51.9811C9.03247 52.0781 9.00883 52.1757 8.98765 52.2739C8.97851 52.3161 8.96937 52.3581 8.96105 52.4007C8.9573 52.4199 8.95261 52.4389 8.94898 52.4581H3.72652C2.97699 52.4581 2.36726 51.8484 2.36726 51.0987V45.0004C2.36569 44.2451 2.61846 43.5113 3.08484 42.9171C3.55122 42.323 4.20404 41.9032 4.93812 41.7254C5.60597 41.5621 6.1796 41.376 6.648 41.1705H49.2096C49.8567 41.1705 50.3814 40.6458 50.3814 39.9986C50.3814 39.3515 49.8567 38.8267 49.2096 38.8267H24.0228V17.6365C24.0228 16.2133 25.1809 15.0552 26.6041 15.0552H55.0512C57.2973 15.0552 57.6325 18.2034 57.6325 20.08V50.5567C57.6325 52.2118 56.4409 52.4588 55.7306 52.4588Z" fill="#F1CDB3"/>
<path d="M50.4841 24.8147C50.4842 23.2763 49.4036 21.9863 47.9619 21.6615C47.9696 21.5806 47.9757 21.4992 47.9781 21.4169C48.0049 20.4633 47.6487 19.5567 46.9752 18.864C46.2902 18.1596 45.3336 17.7557 44.3504 17.7557C43.1624 17.7557 42.1043 18.3338 41.4418 19.2239C40.7798 18.3338 39.7208 17.7557 38.5301 17.7557C37.5556 17.7557 36.6056 18.1544 35.9237 18.8498C35.2465 19.5402 34.8836 20.4483 34.9022 21.4064C34.9038 21.4923 34.9097 21.5773 34.9173 21.6618C33.4761 21.987 32.3962 23.2766 32.3962 24.8147C32.3962 26.1163 33.1699 27.2399 34.2811 27.7519C33.4983 28.7206 33.0415 29.9464 33.0415 31.2423C33.0415 34.3028 35.5313 36.7927 38.5918 36.7927C39.5999 36.7927 40.584 36.5172 41.4402 36.0051C42.301 36.5202 43.2854 36.7924 44.2885 36.7927C47.349 36.7927 49.8389 34.3028 49.8389 31.2423C49.8389 29.9462 49.3821 28.7206 48.5993 27.7519C49.7106 27.2399 50.4841 26.1163 50.4841 24.8147ZM44.3504 20.0996C44.7044 20.0996 45.0486 20.2448 45.2948 20.4979C45.5232 20.7328 45.644 21.0357 45.6353 21.3508C45.615 22.0692 45.0326 22.6602 44.3368 22.6682C44.1504 22.668 43.9661 22.6279 43.7965 22.5505C43.7755 22.5408 43.7549 22.5304 43.7338 22.5209C43.627 22.4646 43.5293 22.3927 43.4436 22.3077C43.1988 22.0648 43.0647 21.7384 43.0661 21.3885C43.069 20.6778 43.6452 20.0996 44.3504 20.0996ZM37.5968 20.491C37.7181 20.3665 37.8633 20.2677 38.0236 20.2005C38.1839 20.1332 38.3561 20.0988 38.5299 20.0994C39.2373 20.0994 39.8134 20.6762 39.8142 21.3851C39.8151 21.5579 39.7813 21.7291 39.7148 21.8885C39.6483 22.048 39.5505 22.1925 39.4271 22.3135C39.3434 22.3959 39.2483 22.466 39.1448 22.5217C39.1065 22.5391 39.0691 22.5577 39.0313 22.5758C38.8785 22.6389 38.7145 22.6704 38.5493 22.6683C37.8439 22.6567 37.259 22.0704 37.2453 21.3613C37.239 21.0374 37.3639 20.7285 37.5968 20.491ZM34.74 24.8148C34.7399 24.3245 35.1388 23.9257 35.6288 23.9257C36.1192 23.9257 36.5179 24.3245 36.5179 24.8148C36.5179 24.9155 36.5004 25.0118 36.4694 25.1022C36.4401 25.1611 36.4119 25.2207 36.3847 25.2808C36.2279 25.5341 35.9482 25.7038 35.629 25.7038C35.1388 25.7038 34.74 25.305 34.74 24.8148ZM44.2885 34.4492C43.5235 34.4489 42.7838 34.175 42.2031 33.6769C41.9908 33.4945 41.7201 33.3943 41.4402 33.3946C41.1603 33.3944 40.8896 33.4946 40.6773 33.6769C40.0966 34.175 39.3568 34.4489 38.5918 34.4492C36.8237 34.4492 35.3852 33.0107 35.3852 31.2426C35.3852 29.9023 36.2303 28.6919 37.4879 28.2307C37.6942 28.1551 37.8751 28.023 38.0099 27.8495C38.1447 27.676 38.228 27.4681 38.2503 27.2495C38.2832 26.9273 38.3646 26.6118 38.4917 26.3139C38.5335 26.2346 38.5726 26.1537 38.6077 26.0707C38.9186 25.4851 39.4041 25.0108 39.9968 24.7136C40.0477 24.6912 40.0981 24.6676 40.1481 24.6428C40.5555 24.4648 40.9955 24.3731 41.4402 24.3737C41.8983 24.3737 42.3345 24.4692 42.7298 24.6417C42.7797 24.6665 42.8301 24.6899 42.8811 24.7123C43.4749 25.0094 43.9613 25.4843 44.2726 26.0707C44.3078 26.1537 44.3469 26.2346 44.3886 26.3139C44.5158 26.6118 44.5972 26.9273 44.63 27.2495C44.6523 27.4681 44.7356 27.676 44.8705 27.8495C45.0053 28.023 45.1861 28.1551 45.3924 28.2307C46.6501 28.692 47.4951 29.9023 47.4951 31.2426C47.4951 33.0106 46.0567 34.4492 44.2885 34.4492ZM47.2515 25.7038C46.9323 25.7038 46.6526 25.5341 46.4958 25.2808C46.4686 25.2208 46.4403 25.1612 46.411 25.1022C46.3791 25.0097 46.3627 24.9126 46.3625 24.8148C46.3625 24.3245 46.7613 23.9257 47.2516 23.9257C47.7418 23.9257 48.1406 24.3245 48.1406 24.8148C48.1405 25.3049 47.7417 25.7038 47.2515 25.7038Z" fill="#F1CDB3"/>
<path d="M55.0663 39.7758C55.0513 39.7007 55.0289 39.6273 54.9996 39.5566C54.9704 39.4857 54.9343 39.4178 54.8918 39.3539C54.8496 39.2897 54.8009 39.23 54.7465 39.1758C54.6922 39.1214 54.6326 39.0727 54.5684 39.0305C54.4403 38.9457 54.297 38.8864 54.1465 38.8559C53.9957 38.8254 53.8403 38.8254 53.6895 38.8559C53.6145 38.8712 53.5406 38.8934 53.4691 38.9227C53.3988 38.952 53.3309 38.9884 53.2676 39.0305C53.2031 39.0727 53.1434 39.1219 53.0895 39.1758C53.0354 39.2297 52.9862 39.2895 52.943 39.3539C52.9008 39.4172 52.8643 39.4852 52.8363 39.5566C52.807 39.627 52.7836 39.7008 52.7695 39.7758C52.7543 39.8508 52.7461 39.9281 52.7461 40.0043C52.7461 40.0803 52.7543 40.1578 52.7695 40.234C52.7836 40.3078 52.807 40.3816 52.8363 40.4531C52.8656 40.5234 52.902 40.5914 52.9441 40.6547C52.9862 40.7191 53.0354 40.7789 53.0895 40.8328C53.1434 40.8867 53.2031 40.9359 53.2676 40.9793C53.3309 41.0215 53.3988 41.0566 53.4691 41.0859C53.5406 41.1152 53.6145 41.1387 53.6895 41.1527C53.7646 41.168 53.8419 41.1762 53.918 41.1762C53.9941 41.1762 54.0716 41.168 54.1465 41.1527C54.2215 41.1387 54.2953 41.1152 54.3656 41.0859C54.4371 41.0566 54.5051 41.0215 54.5684 40.9793C54.6329 40.9359 54.6927 40.8867 54.7465 40.8328C54.8004 40.7789 54.8496 40.7191 54.8918 40.6547C54.9339 40.5914 54.9703 40.5234 54.9996 40.4531C55.0289 40.3816 55.0511 40.3078 55.0663 40.234C55.0816 40.1578 55.0897 40.0803 55.0897 40.0043C55.0897 39.9281 55.0816 39.8508 55.0663 39.7758Z" fill="#F1CDB3"/>
<path d="M41.4402 0C40.7931 0 40.2683 0.524648 40.2683 1.17188V3.13359C40.2683 3.78082 40.7931 4.30547 41.4402 4.30547C42.0874 4.30547 42.612 3.7807 42.612 3.13359V1.17188C42.612 0.524648 42.0874 0 41.4402 0Z" fill="#F1CDB3"/>
<path d="M36.5032 4.55659L34.8675 3.27234C34.7465 3.1773 34.6079 3.10703 34.4597 3.06555C34.3115 3.02407 34.1566 3.01218 34.0038 3.03057C33.851 3.04896 33.7033 3.09727 33.5692 3.17273C33.4351 3.24819 33.3171 3.34934 33.2221 3.47038C32.8225 3.97944 32.9112 4.71608 33.4201 5.11569L35.0558 6.39995C35.2619 6.56221 35.5165 6.65035 35.7788 6.65015C35.9565 6.65039 36.1319 6.61017 36.2917 6.53253C36.4516 6.45488 36.5916 6.34186 36.7013 6.20202C37.101 5.69284 37.0123 4.9562 36.5032 4.55659Z" fill="#F1CDB3"/>
<path d="M49.6583 3.47021C49.2587 2.96115 48.5222 2.87244 48.0129 3.27216L46.3772 4.55642C45.8681 4.95603 45.7794 5.69267 46.1791 6.20185C46.2887 6.34177 46.4288 6.45487 46.5886 6.53254C46.7485 6.61021 46.9239 6.65042 47.1016 6.6501C47.3639 6.65028 47.6185 6.56214 47.8246 6.3999L49.4603 5.11564C49.9693 4.71603 50.0581 3.97939 49.6583 3.47021Z" fill="#F1CDB3"/>
</symbol><symbol id="h-3" viewBox="0 0 60 60">
<path d="M51.2132 8.78672C45.5469 3.1207 38.0133 0 30 0C21.9867 0 14.4531 3.1207 8.78684 8.78672C3.12047 14.4531 0 21.9866 0 30C0 38.0134 3.12047 45.5469 8.78684 51.2133C14.4531 56.8793 21.9867 60 30 60C38.0133 60 45.5469 56.8793 51.2132 51.2133C56.8795 45.5469 60 38.0134 60 30C60 21.9866 56.8795 14.4531 51.2132 8.78672ZM10.6314 49.3685C5.90438 44.6415 3.11918 38.4906 2.67352 31.8832C3.39 31.9077 4.1223 31.9755 4.86223 32.0856C10.1654 32.8733 15.5023 35.7234 19.8894 40.1106C24.2766 44.4979 27.1266 49.8346 27.9144 55.1379C28.0223 55.8586 28.0894 56.5849 28.1154 57.3132C21.7419 56.8775 15.4928 54.2298 10.6314 49.3685ZM30.7262 57.3682C30.7013 56.4931 30.6239 55.6203 30.4946 54.7545C29.6251 48.9019 26.5139 43.046 21.7338 38.2659C16.9538 33.4859 11.098 30.3746 5.2452 29.5051C4.37502 29.3751 3.49781 29.2977 2.61832 29.2732C2.64105 28.3972 2.7048 27.5283 2.8084 26.6682C3.73793 26.6987 4.68246 26.7843 5.62863 26.9248C12.0308 27.8757 18.4055 31.2484 23.5785 36.4213C28.7512 41.5939 32.1239 47.9687 33.075 54.3709C33.2133 55.3004 33.2987 56.237 33.3307 57.1763C32.4661 57.2814 31.5969 57.3455 30.7262 57.3682ZM49.3685 49.3685C45.5416 53.1952 40.8551 55.6504 35.9248 56.7348C35.881 55.8152 35.7912 54.8983 35.6557 53.9877C34.6229 47.0358 30.9889 40.1423 25.4234 34.5766C19.8575 29.0109 12.964 25.3772 6.0123 24.3444C5.0982 24.2082 4.17782 24.1182 3.25465 24.0746L3.2475 24.0805C4.35598 19.0238 6.88301 14.3798 10.6315 10.6314C14.2923 6.97055 18.7399 4.56516 23.4349 3.41402C23.4672 4.49215 23.5632 5.56742 23.7224 6.63422C24.755 13.5859 28.3889 20.4795 33.9546 26.0453C39.5203 31.611 46.4139 35.2447 53.3659 36.2775C54.4358 36.4373 55.5143 36.5334 56.5956 36.5653L56.6073 36.5459C55.4323 41.3595 52.9617 45.7754 49.3685 49.3685ZM57.1071 33.966C56.0064 33.955 54.8814 33.8653 53.7492 33.6972C47.3468 32.7461 40.972 29.3735 35.7993 24.2006C30.6265 19.0277 27.2538 12.6531 26.3029 6.25102C26.1354 5.12379 26.0455 4.00371 26.034 2.90824C26.8999 2.78261 27.7712 2.69826 28.6451 2.65547C28.6431 3.70254 28.7214 4.7775 28.8832 5.8677C29.7527 11.7204 32.8641 17.5763 37.6441 22.3562C38.1534 22.8654 38.9794 22.8654 39.4888 22.3562C39.9981 21.8469 39.9981 21.021 39.4888 20.5114C35.1016 16.1243 32.2516 10.7876 31.4638 5.48426C31.3205 4.51898 31.2499 3.57035 31.2521 2.65055C37.8434 2.94937 44.3467 5.60918 49.3688 10.6315C54.2461 15.5088 57.0565 21.902 57.3623 28.7483C56.4367 28.7503 55.4855 28.6804 54.5159 28.5363C53.8035 28.4305 53.1397 28.9225 53.034 29.635C52.9281 30.3476 53.42 31.0109 54.1325 31.1167C55.21 31.2768 56.2729 31.3569 57.3083 31.3569C57.3252 31.3569 57.3417 31.356 57.3586 31.356C57.316 32.2295 57.2321 33.1004 57.1071 33.966Z" fill="#F1CDB3"/>
<path d="M46.1517 25.775C45.8059 25.7756 45.4744 25.9131 45.2296 26.1573C44.9854 26.4021 44.848 26.7336 44.8474 27.0793C44.8474 27.4224 44.9857 27.7589 45.2296 28.0015C45.4721 28.2442 45.8087 28.3836 46.1517 28.3836C46.4947 28.3836 46.8313 28.2442 47.0739 28.0015C47.3176 27.7563 47.4549 27.425 47.456 27.0793C47.456 26.7363 47.3164 26.3998 47.0739 26.1573C46.829 25.9131 46.4975 25.7756 46.1517 25.775Z" fill="#F1CDB3"/>
</symbol><symbol id="h-4" viewBox="0 0 60 57">
<path d="M59.985 37.8551L57.1255 18.6441C57.0792 13.0657 53.693 7.89303 47.8159 4.43765C42.9483 1.57605 36.6213 0 30.0001 0C23.3786 0 17.0515 1.57605 12.1838 4.43765C6.3069 7.89303 2.92054 13.0657 2.87437 18.6441L0.0148828 37.8551C0.00503905 37.9216 0 37.9887 0 38.056C0 43.7049 3.76452 48.936 10.3284 52.408C15.7022 55.2504 22.6883 56.8158 30.0001 56.8158C37.3116 56.8158 44.2978 55.2504 49.6716 52.408C56.2354 48.936 60 43.7049 60 38.056C59.9999 37.9888 59.9949 37.9216 59.985 37.8551ZM13.5668 6.78995C18.0215 4.17105 23.8576 2.72871 30.0001 2.72871C36.1424 2.72871 41.9785 4.17105 46.4331 6.78995C51.4956 9.76627 54.3993 14.1293 54.3993 18.7599C54.3993 23.3906 51.4957 27.7535 46.4332 30.7299C41.9785 33.3488 36.1424 34.7911 30.0001 34.7911C23.8577 34.7911 18.0215 33.3488 13.5669 30.7299C8.5044 27.7536 5.60073 23.3906 5.60073 18.7599C5.60073 14.1293 8.50428 9.76639 13.5668 6.78995ZM48.3956 49.996C43.4079 52.6342 36.875 54.0871 30.0001 54.0871C23.125 54.0871 16.592 52.6342 11.6044 49.996C6.00374 47.0333 2.77453 42.7218 2.72917 38.1535L4.60757 25.5342C6.17225 28.4612 8.75283 31.0645 12.1841 33.0819C17.0517 35.9434 23.3787 37.5195 30.0001 37.5195C36.6213 37.5195 42.9485 35.9434 47.816 33.0819C51.2473 31.0645 53.8279 28.461 55.3925 25.5342L57.2709 38.1535C57.2255 42.7219 53.9963 47.0335 48.3956 49.996Z" fill="#F1CDB3"/>
<path d="M30.0001 32.0618C39.3534 32.0618 47.6079 28.4427 50.5397 23.0569C51.29 21.6803 51.6707 20.2344 51.6707 18.7599C51.6707 15.0676 49.3194 11.652 45.0502 9.14217C41.0085 6.76631 35.6637 5.45791 30.0001 5.45791C24.3366 5.45791 18.9916 6.76643 14.9501 9.14229C10.6807 11.6521 8.32945 15.0676 8.32945 18.76C8.32945 20.2347 8.70996 21.6804 9.46008 23.0563C12.3923 28.4427 20.6467 32.0618 30.0001 32.0618ZM30.0001 29.3332C22.1546 29.3332 15.0282 26.5145 12.2557 22.4006C15.0293 18.2891 22.1568 15.4732 30.0001 15.4732C37.8435 15.4732 44.9711 18.2891 47.7446 22.4008C44.9726 26.5145 37.8458 29.3332 30.0001 29.3332ZM11.0579 18.76C11.058 16.0744 12.9313 13.4942 16.3328 11.4945C19.9617 9.36131 24.8154 8.18651 30 8.18651C35.1845 8.18651 40.0384 9.36131 43.6672 11.4946C47.0687 13.4942 48.9421 16.0743 48.9421 18.76C48.9421 18.9993 48.9259 19.238 48.896 19.4761C45.1332 15.3699 37.9658 12.7446 30 12.7446C22.0342 12.7446 14.8669 15.37 11.1041 19.4761C11.0738 19.2386 11.0584 18.9994 11.0579 18.76Z" fill="#F1CDB3"/>
<path d="M30 39.7701C29.8155 39.7701 29.6329 39.8076 29.4633 39.8801C29.2936 39.9527 29.1405 40.059 29.0131 40.1924C28.1243 41.1235 25.225 44.3365 25.225 46.5916C25.225 49.2246 27.367 51.3666 30 51.3666C32.633 51.3666 34.775 49.2246 34.775 46.5916C34.775 44.3365 31.8756 41.1235 30.987 40.1924C30.8595 40.059 30.7064 39.9527 30.5368 39.8801C30.3671 39.8076 30.1845 39.7701 30 39.7701ZM30 48.6381C28.8716 48.6381 27.9536 47.7201 27.9536 46.5917C27.9536 45.986 28.9058 44.5224 30 43.1941C31.0943 44.5226 32.0465 45.986 32.0465 46.5917C32.0465 47.7201 31.1284 48.6381 30 48.6381Z" fill="#F1CDB3"/>
<path d="M23.8843 21.8977H23.4637C22.7102 21.8977 22.0994 22.5085 22.0994 23.262C22.0994 24.0155 22.7102 24.6263 23.4637 24.6263H23.8843C24.6378 24.6263 25.2486 24.0155 25.2486 23.262C25.2486 22.5085 24.6378 21.8977 23.8843 21.8977Z" fill="#F1CDB3"/>
<path d="M40.074 21.8977H30.342C29.5884 21.8977 28.9777 22.5085 28.9777 23.262C28.9777 24.0155 29.5884 24.6263 30.342 24.6263H40.074C40.8275 24.6263 41.4383 24.0155 41.4383 23.262C41.4383 22.5085 40.8275 21.8977 40.074 21.8977Z" fill="#F1CDB3"/>
</symbol><symbol id="h-5" viewBox="0 0 32 60">
<path d="M23.8261 17.1814V11.7391C23.8261 11.0188 23.2421 10.4348 22.5218 10.4348H21.5435V1.3043C21.5435 0.583945 20.9595 0 20.2392 0H11.7609C11.0406 0 10.4566 0.583945 10.4566 1.3043V10.4347H9.47833C8.75798 10.4347 8.17403 11.0187 8.17403 11.739V17.1813C3.59352 19.0078 0.3479 23.4879 0.3479 28.712V58.6956C0.3479 59.4159 0.931845 59.9999 1.6522 59.9999H30.3479C31.0683 59.9999 31.6522 59.4159 31.6522 58.6956V28.7121C31.6521 23.4879 28.4065 19.0078 23.8261 17.1814ZM13.0652 2.60871H18.9348V10.4348H13.0652V2.60871ZM10.7825 13.0434H21.2172V16.3043H10.7825V13.0434ZM29.0434 57.3913H2.95649V28.7121C2.95649 23.3088 7.35231 18.913 12.7555 18.913H19.2444C24.6477 18.913 29.0434 23.3088 29.0434 28.7121V57.3913Z" fill="#F1CDB3"/>
<path d="M24.4783 27.3913H7.52171C6.80136 27.3913 6.21741 27.9752 6.21741 28.6956V52.826C6.21741 53.5464 6.80136 54.1303 7.52171 54.1303H24.4783C25.1986 54.1303 25.7826 53.5464 25.7826 52.826V44.6287C25.7826 43.9084 25.1986 43.3244 24.4783 43.3244C23.7579 43.3244 23.174 43.9084 23.174 44.6287V51.5217H8.82613V30H23.174V34.1287C23.174 34.8491 23.7579 35.433 24.4783 35.433C25.1986 35.433 25.7826 34.8491 25.7826 34.1287V28.6957C25.7826 27.9752 25.1986 27.3913 24.4783 27.3913Z" fill="#F1CDB3"/>
<path d="M24.4782 38.0645C23.7579 38.0645 23.1739 38.6484 23.1739 39.3688V39.4992C23.1739 40.2195 23.7579 40.8035 24.4782 40.8035C25.1986 40.8035 25.7825 40.2195 25.7825 39.4992V39.3688C25.7825 38.6484 25.1986 38.0645 24.4782 38.0645Z" fill="#F1CDB3"/>
<path d="M14.688 41.1512C12.5303 41.1512 10.775 42.9066 10.775 45.0642C10.775 47.2219 12.5303 48.9773 14.688 48.9773C16.8457 48.9773 18.601 47.2219 18.601 45.0642C18.601 42.9067 16.8457 41.1512 14.688 41.1512ZM14.688 46.3687C13.9688 46.3687 13.3837 45.7835 13.3837 45.0644C13.3837 44.3452 13.9688 43.7601 14.688 43.7601C15.4072 43.7601 15.9923 44.3452 15.9923 45.0644C15.9923 45.7835 15.4073 46.3687 14.688 46.3687Z" fill="#F1CDB3"/>
<path d="M21.5414 35.9842C21.5414 33.8266 19.7861 32.0712 17.6284 32.0712C15.4707 32.0712 13.7154 33.8266 13.7154 35.9842C13.7154 38.1419 15.4707 39.8973 17.6284 39.8973C19.7859 39.8974 21.5414 38.1419 21.5414 35.9842ZM17.6283 37.2887C16.9091 37.2887 16.324 36.7035 16.324 35.9844C16.324 35.2652 16.9091 34.6801 17.6283 34.6801C18.3475 34.6801 18.9326 35.2652 18.9326 35.9844C18.9326 36.7035 18.3477 37.2887 17.6283 37.2887Z" fill="#F1CDB3"/>
</symbol><symbol id="h-6" viewBox="0 0 60 55">
<path d="M54.3108 32.3986C51.0359 31.284 46.7048 30.6702 42.1158 30.6702C41.8289 30.6702 41.5431 30.6725 41.2586 30.6773C36.9894 30.7488 32.991 31.3536 29.9207 32.3986C29.428 32.5653 28.9424 32.7523 28.4651 32.9589V14.2325C28.4651 6.38472 22.0805 0 14.2325 0C6.38461 0 0 6.38472 0 14.2325V39.9261C0 47.7739 6.38461 54.1587 14.2325 54.1587C16.722 54.1587 19.1722 53.5062 21.3188 52.2717C22.6721 51.4934 23.8881 50.4936 24.9168 49.3257C25.6645 50.3761 27.1451 51.4856 29.9208 52.4303C33.1957 53.5448 37.5266 54.1587 42.1157 54.1587C46.7047 54.1587 51.0357 53.5448 54.3107 52.4303C59.0129 50.83 60 48.7566 60 47.299V37.5299C60 36.0723 59.0129 33.9989 54.3108 32.3986ZM26.5754 37.5299C26.5759 37.4863 26.5798 37.4428 26.5871 37.3998L26.5891 37.3882C26.6289 37.1764 26.7563 36.9305 26.9907 36.6639L26.9952 36.6589C27.0307 36.6187 27.0695 36.578 27.1099 36.5368C27.137 36.5096 27.1641 36.4823 27.193 36.4552L27.2271 36.4233C27.4235 36.2422 27.6601 36.0603 27.9332 35.8825C27.9379 35.8794 27.9418 35.8757 27.9464 35.8726C28.5871 35.4565 29.478 35.025 30.6759 34.6173C33.7141 33.5834 37.7769 33.0138 42.1158 33.0138C46.0691 33.0139 49.7904 33.488 52.719 34.3541L27.6397 38.9756C26.8868 38.4213 26.5767 37.9077 26.5754 37.5323V37.5299ZM26.1213 34.2903C25.2179 34.9825 24.7144 35.6857 24.4591 36.3382C24.3731 36.5576 24.3108 36.7855 24.2733 37.0181C24.2561 37.1239 24.2443 37.2305 24.2379 37.3375L24.2359 37.3677C24.2331 37.4224 24.2313 37.4766 24.2313 37.5298V46.3609C22.0289 49.7824 18.315 51.8149 14.2325 51.8149C7.67707 51.8149 2.34375 46.4816 2.34375 39.9261V28.2512H4.6875V34.5793C4.6875 35.2266 5.21227 35.7512 5.85938 35.7512C6.50648 35.7512 7.03125 35.2266 7.03125 34.5793V28.2512H26.1213V34.2903ZM26.1213 25.9075H7.03125V14.2325C7.03125 10.2618 10.2616 7.03125 14.2325 7.03125C18.2034 7.03125 21.4338 10.2618 21.4338 14.2325C21.4338 14.8798 21.9586 15.4044 22.6057 15.4044C23.2529 15.4044 23.7776 14.8798 23.7776 14.2325C23.7776 8.96941 19.4957 4.6875 14.2325 4.6875C8.96941 4.6875 4.6875 8.96941 4.6875 14.2325V25.9075H2.34375V14.2325C2.34375 7.67707 7.67707 2.34375 14.2325 2.34375C20.788 2.34375 26.1213 7.67707 26.1213 14.2325V25.9075ZM57.6562 47.299C57.6562 47.9987 56.5823 49.1814 53.5556 50.2116C50.5174 51.2455 46.4546 51.815 42.1158 51.815C37.7769 51.815 33.7141 51.2456 30.6759 50.2116C27.6492 49.1815 26.5753 47.9988 26.5753 47.299V46.6986L26.5754 46.697V41.0932C27.3962 41.6393 28.4844 42.1724 29.9208 42.6612C33.1957 43.7757 37.5267 44.3896 42.1158 44.3896C46.7048 44.3896 51.0359 43.7757 54.3108 42.6612C55.7471 42.1723 56.8355 41.6393 57.6562 41.0931V47.299ZM53.5556 40.4423C50.5174 41.4763 46.4548 42.0458 42.1158 42.0458C38.1056 42.0458 34.3334 41.5584 31.386 40.6685L56.525 36.036C57.3278 36.6098 57.6562 37.1435 57.6562 37.5299C57.6562 38.2296 56.5823 39.4123 53.5556 40.4423Z" fill="#F1CDB3"/>
<path d="M6.68777 38.402C6.63386 38.3481 6.57421 38.2989 6.50976 38.2567C6.44592 38.2141 6.37801 38.178 6.30702 38.1489C6.23671 38.1196 6.163 38.0973 6.088 38.0821C5.93718 38.0516 5.78179 38.0516 5.63097 38.0821C5.55597 38.0973 5.48214 38.1196 5.41066 38.1489C5.34023 38.1782 5.27238 38.2145 5.2091 38.2567C5.14452 38.2989 5.08476 38.3481 5.03085 38.402C4.97695 38.4559 4.92773 38.5157 4.88554 38.5802C4.84218 38.6434 4.80702 38.7114 4.77773 38.7829C4.74843 38.8532 4.72499 38.927 4.71105 39.002C4.6957 39.077 4.68761 39.1544 4.68761 39.2305C4.68761 39.3079 4.6957 39.3841 4.71105 39.4602C4.72499 39.5352 4.74843 39.6091 4.77773 39.6794C4.80702 39.7497 4.84218 39.8177 4.88554 39.8821C4.92773 39.9454 4.97695 40.0052 5.03085 40.0602C5.19533 40.2232 5.40397 40.3345 5.63097 40.3802C5.70597 40.3954 5.78331 40.4024 5.85949 40.4024C6.01311 40.4028 6.16526 40.3725 6.30702 40.3134C6.37801 40.2842 6.44592 40.2481 6.50976 40.2055C6.57421 40.1622 6.63398 40.1141 6.68788 40.0602C6.74191 40.0052 6.79113 39.9454 6.8332 39.8821C6.87538 39.8177 6.91171 39.7497 6.94101 39.6794C6.97031 39.6091 6.99374 39.5352 7.00898 39.4602C7.02421 39.3841 7.03124 39.3079 7.03124 39.2305C7.03124 38.9223 6.90585 38.62 6.68777 38.402Z" fill="#F1CDB3"/>
</symbol><symbol id="h-7" viewBox="0 0 60 60">
<path d="M59.6566 15.8985L44.1016 0.343125C43.6439 -0.114375 42.9021 -0.114375 42.4442 0.343125L38.3016 4.48547C38.0819 4.70525 37.9584 5.00331 37.9584 5.3141C37.9584 5.62489 38.0819 5.92295 38.3016 6.14273L43.2227 11.0637L38.5637 15.7226L31.3927 8.55152C30.935 8.09391 30.193 8.09402 29.7353 8.55152L24.9769 13.3099C24.7572 13.5297 24.6337 13.8278 24.6337 14.1386C24.6337 14.4493 24.7572 14.7474 24.9769 14.9672L26.4882 16.4784L7.06527 35.902C5.28051 37.6868 5.28051 40.5911 7.06527 42.3762L8.55648 43.8674L5.82226 46.6016C5.71343 46.7104 5.6271 46.8396 5.5682 46.9818C5.5093 47.124 5.47899 47.2763 5.47899 47.4302C5.47899 47.5841 5.5093 47.7365 5.5682 47.8787C5.6271 48.0209 5.71343 48.1501 5.82226 48.2589L7.95297 50.3897L0.343396 57.9991C-0.114221 58.4568 -0.114221 59.1988 0.343396 59.6565C0.572263 59.8854 0.872146 59.9998 1.17203 59.9998C1.47191 59.9998 1.77191 59.8854 2.00066 59.6565L9.61035 52.0468L11.7412 54.1777C11.961 54.3974 12.259 54.5208 12.5698 54.5208C12.8806 54.5208 13.1787 54.3974 13.3984 54.1777L16.1327 51.4434L17.6239 52.9347C18.4885 53.7993 19.6382 54.2754 20.8609 54.2754C22.0837 54.2754 23.2334 53.7993 24.098 52.9347L43.5211 33.5116L45.0324 35.0229C45.1411 35.1319 45.2702 35.2183 45.4124 35.2772C45.5546 35.3361 45.7071 35.3663 45.861 35.3661C46.161 35.3661 46.4608 35.2518 46.6896 35.0229L51.4479 30.2645C51.6677 30.0447 51.7911 29.7466 51.7911 29.4359C51.7911 29.1251 51.6677 28.827 51.4479 28.6072L44.2769 21.4362L48.9358 16.7773L53.8567 21.6982C53.9654 21.8072 54.0946 21.8936 54.2368 21.9525C54.379 22.0114 54.5314 22.0416 54.6853 22.0414C54.9854 22.0414 55.2851 21.9271 55.514 21.6982L59.6564 17.5557C60.1143 17.0982 60.1143 16.3562 59.6566 15.8985ZM24.736 21.546L30.1578 26.9678C30.2665 27.0768 30.3956 27.1632 30.5378 27.2221C30.68 27.281 30.8325 27.3112 30.9864 27.311C31.2864 27.311 31.5862 27.1966 31.815 26.9678C32.2727 26.5102 32.2727 25.7681 31.815 25.3105L26.3932 19.8887L28.1455 18.1364L38.2342 28.2251L32.8749 33.5844L22.7861 23.4956L24.736 21.546ZM12.5698 51.6916L8.30816 47.4301L10.2139 45.5246L14.4753 49.7861L12.5698 51.6916ZM22.4405 51.2773C21.5696 52.1482 20.1522 52.1483 19.2812 51.2773L8.72254 40.7187C7.85148 39.8476 7.85148 38.4302 8.72254 37.5593L10.3918 35.8901L13.2774 38.7757C13.5062 39.0046 13.8061 39.1189 14.106 39.1189C14.4059 39.1189 14.7059 39.0046 14.9346 38.7757C15.3923 38.3181 15.3923 37.5761 14.9346 37.1183L12.049 34.2327L13.9776 32.304L19.3993 37.7257C19.6281 37.9546 19.928 38.0689 20.2279 38.0689C20.5278 38.0689 20.8278 37.9545 21.0565 37.7257C21.5141 37.2681 21.5141 36.5261 21.0565 36.0684L15.6347 30.6466L17.5634 28.718L20.449 31.6036C20.6779 31.8325 20.9778 31.9468 21.2777 31.9468C21.5775 31.9468 21.8775 31.8325 22.1063 31.6036C22.5639 31.146 22.5639 30.4039 22.1063 29.9462L19.2207 27.0606L21.1282 25.153L31.217 35.2417L23.5962 42.8626C23.1386 43.3202 23.1386 44.0623 23.5962 44.52C23.8251 44.7489 24.125 44.8632 24.4248 44.8632C24.7247 44.8632 25.0247 44.7487 25.2535 44.52L32.8743 36.8991L34.8461 38.8709L22.4405 51.2773ZM36.5043 37.2137L34.5325 35.2417L39.8918 29.8822L41.8636 31.854L36.5043 37.2137ZM48.962 29.4359L45.861 32.5369L27.4629 14.1389L30.5639 11.0379L48.962 29.4359ZM42.6197 19.7789L40.221 17.3802L44.8799 12.7212L47.2786 15.1199L42.6197 19.7789ZM54.6857 19.2123L40.7877 5.31422L43.2729 2.82902L57.1709 16.727L54.6857 19.2123Z" fill="#F1CDB3"/>
<path d="M22.3158 46.7207C22.3017 46.6457 22.2783 46.5719 22.249 46.5016C22.2199 46.4306 22.1838 46.3627 22.1412 46.2988C22.099 46.2344 22.0498 46.1746 21.9959 46.1207C21.942 46.0668 21.8822 46.0176 21.8178 45.9754C21.7539 45.9328 21.686 45.8967 21.615 45.8676C21.5447 45.8383 21.4709 45.816 21.3959 45.8008C21.2451 45.7703 21.0897 45.7703 20.9389 45.8008C20.8639 45.816 20.79 45.8383 20.7197 45.8676C20.6482 45.8969 20.5803 45.9332 20.517 45.9754C20.4525 46.0176 20.3928 46.0668 20.3389 46.1207C20.2849 46.1746 20.2357 46.2344 20.1935 46.2988C20.1514 46.362 20.115 46.4301 20.0857 46.5016C20.0564 46.5719 20.033 46.6457 20.0189 46.7207C20.0037 46.7957 19.9955 46.8731 19.9955 46.9492C19.9955 47.0254 20.0037 47.1028 20.0189 47.1789C20.033 47.2528 20.0564 47.3266 20.0857 47.3981C20.115 47.4684 20.1514 47.5364 20.1935 47.5996C20.2357 47.6641 20.2849 47.7239 20.3389 47.7778C20.4476 47.8871 20.5771 47.9735 20.7197 48.0321C20.8615 48.0913 21.0137 48.1216 21.1674 48.1211C21.321 48.1216 21.4732 48.0913 21.615 48.0321C21.7577 47.9735 21.8871 47.8871 21.9959 47.7778C22.0498 47.7239 22.099 47.6641 22.1412 47.5996C22.1834 47.5364 22.2197 47.4684 22.249 47.3981C22.2783 47.3266 22.3017 47.2528 22.3158 47.1789C22.331 47.1028 22.3392 47.0254 22.3392 46.9492C22.3392 46.8731 22.331 46.7957 22.3158 46.7207Z" fill="#F1CDB3"/>
</symbol><symbol id="h-8" viewBox="0 0 60 53">
<path d="M57.297 6.25112C55.7379 4.99675 53.5393 3.88136 50.7617 2.93613C45.1984 1.04273 37.825 0 29.9997 0C22.1744 0 14.8011 1.04285 9.23787 2.93613C6.4603 3.88136 4.26163 4.99675 2.70257 6.25112C0.909373 7.69416 0 9.28627 0 10.983V24.0989C0 25.7957 0.909373 27.3878 2.70269 28.8308C4.26175 30.0851 6.4603 31.2005 9.23799 32.1458C14.5225 33.9443 21.4409 34.9745 28.8281 35.0733V39.7755H24.7869C24.3392 37.4099 22.2567 35.6156 19.7629 35.6156C16.9435 35.6156 14.6499 37.9093 14.6499 40.7284C14.6499 41.9542 15.0847 43.1148 15.8539 44.0249C15.075 44.9466 14.6484 46.1147 14.6499 47.3214C14.6499 50.1407 16.9435 52.4343 19.7629 52.4343C22.2567 52.4343 24.3392 50.6398 24.7869 48.2744H35.2131C35.6608 50.6399 37.7433 52.4343 40.2371 52.4343C43.0565 52.4343 45.3501 50.1406 45.3501 47.3214C45.3501 46.0956 44.9153 44.935 44.1461 44.0249C44.925 43.1032 45.3516 41.9351 45.3501 40.7284C45.3501 37.9091 43.0565 35.6156 40.2371 35.6156C37.7433 35.6156 35.6608 37.41 35.2131 39.7755H31.1719V35.0733C38.5591 34.9745 45.4775 33.9443 50.762 32.1458C53.5396 31.2005 55.7382 30.0851 57.2973 28.8308C59.0906 27.3878 60 25.7957 60 24.0989V10.983C59.9996 9.28627 59.0903 7.69416 57.297 6.25112ZM36.3022 42.1193C36.4615 42.1193 36.6191 42.0868 36.7655 42.0238C36.9118 41.9608 37.0438 41.8686 37.1533 41.7528C37.2628 41.6371 37.3476 41.5003 37.4024 41.3507C37.4573 41.2011 37.481 41.0419 37.4723 40.8828C37.4694 40.8314 37.4679 40.78 37.4677 40.7286C37.4677 39.2016 38.71 37.9594 40.2369 37.9594C41.7639 37.9594 43.0062 39.2017 43.0062 40.7286C43.0062 41.6643 42.5377 42.5303 41.753 43.0453C41.5905 43.152 41.4571 43.2974 41.3648 43.4684C41.2725 43.6394 41.2242 43.8307 41.2242 44.025C41.2242 44.2194 41.2725 44.4107 41.3648 44.5817C41.4571 44.7527 41.5905 44.8981 41.753 45.0047C42.5377 45.5198 43.0062 46.3858 43.0062 47.3215C43.0062 48.8485 41.7639 50.0906 40.2369 50.0906C38.71 50.0906 37.4677 48.8483 37.4677 47.3215C37.4677 47.2697 37.4696 47.2184 37.4723 47.1673C37.4811 47.0082 37.4574 46.8489 37.4026 46.6993C37.3478 46.5497 37.263 46.4128 37.1535 46.297C37.044 46.1813 36.912 46.0891 36.7656 46.0261C36.6192 45.9631 36.4615 45.9307 36.3022 45.9307H23.6975C23.5382 45.9308 23.3805 45.9633 23.2342 46.0263C23.0878 46.0893 22.9559 46.1815 22.8463 46.2972C22.7368 46.413 22.6521 46.5498 22.5972 46.6994C22.5424 46.849 22.5186 47.0082 22.5274 47.1673C22.5301 47.2184 22.5319 47.2697 22.5319 47.3215C22.5319 48.8485 21.2896 50.0906 19.7627 50.0906C18.2357 50.0906 16.9934 48.8483 16.9934 47.3215C16.9934 46.3858 17.462 45.5198 18.2466 45.0047C18.4091 44.8981 18.5425 44.7527 18.6348 44.5817C18.7271 44.4107 18.7755 44.2194 18.7755 44.025C18.7755 43.8307 18.7271 43.6394 18.6348 43.4684C18.5425 43.2974 18.4091 43.152 18.2466 43.0453C17.462 42.5303 16.9934 41.6643 16.9934 40.7286C16.9934 39.2016 18.2357 37.9594 19.7627 37.9594C21.2896 37.9594 22.5319 39.2017 22.5319 40.7286C22.5319 40.7803 22.5301 40.8317 22.5274 40.8828C22.5185 41.0419 22.5422 41.2011 22.597 41.3508C22.6519 41.5004 22.7366 41.6373 22.8462 41.753C22.9557 41.8688 23.0877 41.961 23.2341 42.0239C23.3804 42.0869 23.5381 42.1194 23.6975 42.1193H36.3022ZM29.9998 32.7383C28.4435 32.7383 27.1772 31.472 27.1772 29.9157C27.1772 28.3593 28.4435 27.0931 29.9998 27.0931C31.5562 27.0931 32.8224 28.3593 32.8224 29.9157C32.8224 31.472 31.5562 32.7383 29.9998 32.7383ZM57.6559 24.0989C57.6559 27.8067 48.3045 31.8985 34.3965 32.6248C34.9005 31.8111 35.1671 30.8727 35.1661 29.9156C35.1661 29.5463 35.1264 29.1862 35.0525 28.8386C39.6006 28.5404 43.8255 27.8617 47.3495 26.8562C47.9718 26.6785 48.3325 26.0301 48.1548 25.4077C47.9772 24.7853 47.329 24.4248 46.7064 24.6024C43.0899 25.6344 38.6789 26.3074 33.9211 26.5577C32.9729 25.4519 31.5673 24.7494 29.9998 24.7494C28.4241 24.7494 27.0118 25.4593 26.0634 26.5753C22.8385 26.4214 19.7739 26.0771 16.9503 25.5459C16.3149 25.426 15.7017 25.8448 15.582 26.4808C15.4624 27.1169 15.881 27.7294 16.5171 27.8492C19.1492 28.3444 21.9775 28.6832 24.9418 28.8625C24.8698 29.2089 24.8335 29.5619 24.8336 29.9157C24.8327 30.8729 25.0993 31.8112 25.6033 32.6249C11.6952 31.8986 2.34375 27.8068 2.34375 24.0989V15.4139L2.35968 15.4272C2.47205 15.5254 2.58637 15.6213 2.70257 15.7149C2.85923 15.8402 3.01885 15.9617 3.18128 16.0794L3.18374 16.0811C3.27117 16.1448 3.36035 16.2081 3.45117 16.271L3.49171 16.2989C3.57714 16.3576 3.66374 16.4161 3.7521 16.4741C3.76991 16.4858 3.7882 16.4975 3.80624 16.5092C3.89542 16.5672 3.98566 16.6251 4.07777 16.6824L4.11749 16.7068C5.50241 17.5632 7.21592 18.3418 9.23776 19.0299C14.801 20.9233 22.1743 21.9661 29.9997 21.9661C37.8251 21.9661 45.1984 20.9233 50.7617 19.0299C52.7837 18.3418 54.4974 17.5631 55.8824 16.7066L55.9216 16.6825C56.0139 16.6251 56.1042 16.5672 56.1935 16.5091L56.2474 16.4742C56.3358 16.4162 56.4225 16.3577 56.5079 16.299L56.5485 16.2711C56.6393 16.2082 56.7285 16.1449 56.8159 16.0813L56.8184 16.0795C56.9808 15.9619 57.1404 15.8403 57.2971 15.715C57.4132 15.6214 57.5276 15.5255 57.64 15.4274L57.6559 15.414V24.0989ZM7.52928 15.8543C8.5501 15.3876 9.94639 14.8517 11.8024 14.3313C16.8453 12.9173 23.3081 12.1387 29.9998 12.1387C36.6916 12.1387 43.1543 12.9174 48.1971 14.3313C50.0533 14.8516 51.4497 15.3875 52.4704 15.8543C47.6207 18.0156 39.6821 19.6224 29.9998 19.6224C20.3176 19.6224 12.379 18.0154 7.52928 15.8543ZM57.6485 11.1548C57.6434 11.2232 57.6352 11.2913 57.624 11.359L57.6225 11.3696C57.6098 11.4416 57.594 11.5129 57.575 11.5835C57.5616 11.6345 57.5465 11.6851 57.53 11.7353L57.5204 11.7647C57.4946 11.839 57.4658 11.9122 57.4342 11.9843C57.4218 12.0128 57.4083 12.0411 57.3948 12.0696C57.3679 12.1263 57.3395 12.1828 57.3088 12.2387L57.3006 12.2537C56.813 13.1338 55.8925 13.9036 54.9784 14.5047C53.7646 13.8055 51.8179 12.9124 48.8301 12.0746C43.587 10.6046 36.8997 9.79521 29.9999 9.79521C23.1002 9.79521 16.413 10.6047 11.1697 12.0747C8.18202 12.9124 6.23542 13.8055 5.02147 14.5049C4.10753 13.9038 3.18703 13.1339 2.69929 12.2538L2.69109 12.2388C2.66039 12.1828 2.63203 12.1263 2.60496 12.0695C2.5916 12.0411 2.57812 12.0129 2.56582 11.9845C2.55527 11.9606 2.54531 11.9366 2.53546 11.9126C2.51542 11.8633 2.49632 11.8141 2.47945 11.7649C2.47605 11.7552 2.473 11.7452 2.46972 11.7355C2.44857 11.6715 2.42993 11.6068 2.41382 11.5414C2.39958 11.4847 2.38738 11.4275 2.37726 11.3699L2.37574 11.3592C2.36456 11.2915 2.35638 11.2234 2.35125 11.1551C2.34653 11.0978 2.34403 11.0404 2.34375 10.983C2.34375 6.89671 13.7017 2.34375 29.9998 2.34375C46.298 2.34375 57.6559 6.89671 57.6559 10.983C57.6559 11.0402 57.6529 11.0975 57.6485 11.1548Z" fill="#F1CDB3"/>
<path d="M48.1765 7.64321C48.1309 7.41623 48.0197 7.20761 47.8567 7.04321C47.8022 6.98905 47.7425 6.94037 47.6785 6.8979C47.5506 6.81287 47.4073 6.75357 47.2567 6.72329C47.1055 6.69282 46.9497 6.69282 46.7985 6.72329C46.7235 6.73852 46.6509 6.76079 46.5794 6.79008C46.5091 6.81938 46.4411 6.85571 46.3778 6.8979C46.3134 6.94008 46.2536 6.9893 46.1985 7.04321C46.1446 7.09712 46.0966 7.15805 46.0533 7.22133C45.9683 7.34929 45.909 7.49258 45.8787 7.64321C45.8635 7.71938 45.8564 7.79555 45.8564 7.87173C45.8564 7.94907 45.8636 8.02524 45.8787 8.10141C45.909 8.25204 45.9683 8.39533 46.0533 8.52329C46.0966 8.58657 46.1446 8.64633 46.1985 8.70141C46.2537 8.75532 46.3135 8.80337 46.3778 8.84673C46.4411 8.88891 46.5091 8.92524 46.5794 8.95454C46.6509 8.98384 46.7236 9.0061 46.7985 9.02133C46.8747 9.03657 46.9521 9.04477 47.0282 9.04477C47.1044 9.04477 47.1818 9.03657 47.2567 9.02133C47.3317 9.0061 47.4057 8.98384 47.4759 8.95454C47.5462 8.92524 47.6141 8.88891 47.6785 8.84673C47.7418 8.80337 47.8028 8.75532 47.8567 8.70141C47.9106 8.64633 47.9598 8.58657 48.002 8.52329C48.087 8.39532 48.1463 8.25203 48.1765 8.10141C48.1919 8.02524 48.2 7.94907 48.2 7.87173C48.2 7.79544 48.1919 7.71926 48.1765 7.64321Z" fill="#F1CDB3"/>
<path d="M43.4829 5.86056C39.4455 5.10095 34.85 4.69935 30.1935 4.69935C23.7488 4.69935 17.5185 5.46435 12.6504 6.8536C12.0282 7.03126 11.6675 7.67966 11.8451 8.30204C11.9918 8.81708 12.4611 9.15271 12.9713 9.15271C13.0777 9.15271 13.186 9.13818 13.2934 9.10747C17.9582 7.77634 23.96 7.04321 30.1934 7.04321C34.707 7.04321 39.1525 7.43075 43.0495 8.164C43.6858 8.28341 44.2981 7.86505 44.4179 7.22896C44.5376 6.59286 44.1189 5.98044 43.4829 5.86056Z" fill="#F1CDB3"/>
<path d="M14.121 25.6092C14.1058 25.5342 14.0835 25.4604 14.0542 25.3889C14.0249 25.3186 13.9886 25.2506 13.9464 25.1873C13.9038 25.1231 13.8547 25.0634 13.7999 25.0092C13.746 24.9553 13.6862 24.9061 13.6218 24.8627C13.5585 24.8205 13.4905 24.7854 13.4201 24.7561C13.3495 24.7265 13.2761 24.7041 13.201 24.6893C13.0498 24.6588 12.8941 24.6588 12.7429 24.6893C12.6678 24.7033 12.5939 24.7268 12.5237 24.7561C12.4523 24.7854 12.3843 24.8205 12.321 24.8627C12.2566 24.9061 12.1968 24.9553 12.1429 25.0092C12.089 25.0631 12.0398 25.1229 11.9976 25.1873C11.9554 25.2506 11.9191 25.3186 11.8898 25.3889C11.8605 25.4604 11.8382 25.5342 11.823 25.6092C11.8077 25.6842 11.7995 25.7615 11.7995 25.8377C11.8003 25.9914 11.8309 26.1434 11.8898 26.2854C11.9191 26.3568 11.9554 26.4248 11.9976 26.4881C12.0398 26.5525 12.089 26.6122 12.1429 26.6662C12.1968 26.7201 12.2566 26.7693 12.321 26.8115C12.3843 26.8549 12.4523 26.8901 12.5237 26.9193C12.5941 26.9486 12.6678 26.9721 12.7429 26.9861C12.8179 27.0014 12.8952 27.0096 12.9713 27.0096C13.0475 27.0096 13.1249 27.0014 13.201 26.9861C13.2761 26.9713 13.3495 26.9489 13.4201 26.9193C13.4909 26.8905 13.5585 26.8543 13.6218 26.8115C13.686 26.7693 13.7457 26.7206 13.7999 26.6662C13.9092 26.5575 13.9957 26.428 14.0542 26.2854C14.1134 26.1436 14.1436 25.9914 14.1432 25.8377C14.1432 25.7614 14.1361 25.6842 14.121 25.6092Z" fill="#F1CDB3"/>
</symbol><symbol id="h-9" viewBox="0 0 58 60">
<path d="M56.6643 19.9663L29.6921 0.226256C29.4912 0.0792462 29.2488 0 28.9999 0C28.751 0 28.5086 0.0792462 28.3077 0.226256L1.33562 19.9663C0.813429 20.3485 0.699875 21.0818 1.08214 21.6041L4.60749 26.4211C4.69835 26.5453 4.8128 26.6504 4.9443 26.7304C5.07579 26.8104 5.22177 26.8637 5.37387 26.8872C5.52597 26.9107 5.68122 26.9041 5.83075 26.8676C5.98028 26.8311 6.12114 26.7655 6.2453 26.6745L7.30913 25.8959V58.828C7.30913 59.4751 7.8339 59.9998 8.48101 59.9998H49.5808C50.2279 59.9998 50.7526 59.4751 50.7526 58.828V25.9413L51.7546 26.6745C51.8788 26.7655 52.0196 26.831 52.1691 26.8675C52.3186 26.904 52.4739 26.9106 52.626 26.8871C52.778 26.8636 52.924 26.8103 53.0555 26.7303C53.187 26.6504 53.3014 26.5453 53.3923 26.4211L56.9176 21.6041C57.3 21.0816 57.1865 20.3485 56.6643 19.9663ZM48.4089 53.0856H20.6833C20.0362 53.0856 19.5114 53.6103 19.5114 54.2574C19.5114 54.9045 20.0362 55.4293 20.6833 55.4293H48.4089V57.6562H9.65277V25.105H37.096C37.7431 25.105 38.2678 24.5803 38.2678 23.9332C38.2678 23.2861 37.7431 22.7613 37.096 22.7613H11.5929L29 10.0213L48.4089 24.226V53.0856ZM52.1931 24.0911L29.6921 7.62348C29.4913 7.47638 29.2488 7.39712 29 7.39719C28.7511 7.39709 28.5086 7.47636 28.3078 7.62348L5.80667 24.0911L3.66554 21.1654L29.0001 2.62391L54.3346 21.1654L52.1931 24.0911Z" fill="#F1CDB3"/>
<path d="M42.4672 23.7046C42.4519 23.6295 42.4285 23.5557 42.3992 23.4842C42.3699 23.4139 42.3336 23.3459 42.2914 23.2826C42.2492 23.2184 42.2005 23.1587 42.1461 23.1045C41.9258 22.8855 41.6281 22.7621 41.3176 22.761C41.0093 22.761 40.707 22.8864 40.4892 23.1045C40.4352 23.1584 40.386 23.2182 40.3438 23.2826C40.3017 23.3459 40.2653 23.4139 40.236 23.4842C40.2067 23.5557 40.1833 23.6295 40.1692 23.7046C40.154 23.7796 40.1458 23.8569 40.1458 23.933C40.1458 24.0092 40.154 24.0866 40.1692 24.1615C40.1833 24.2364 40.2067 24.3103 40.236 24.3818C40.2653 24.4523 40.3017 24.5202 40.3438 24.5835C40.386 24.648 40.4352 24.7076 40.4892 24.7616C40.5431 24.8155 40.6028 24.8648 40.6673 24.9069C40.7306 24.949 40.7985 24.9855 40.87 25.0148C40.9403 25.0441 41.014 25.0675 41.0892 25.0816C41.1642 25.0968 41.2415 25.1049 41.3176 25.1049C41.3937 25.1049 41.4712 25.0968 41.5461 25.0816C41.6212 25.067 41.6947 25.0446 41.7652 25.0148C41.8367 24.9855 41.9047 24.949 41.9679 24.9069C42.0324 24.8648 42.092 24.8155 42.1461 24.7616C42.2 24.7077 42.2492 24.648 42.2914 24.5835C42.3336 24.5202 42.3699 24.4523 42.3992 24.3818C42.4285 24.3105 42.4519 24.2365 42.4672 24.1615C42.4824 24.0865 42.4893 24.0092 42.4893 23.933C42.4893 23.8569 42.4823 23.7795 42.4672 23.7046Z" fill="#F1CDB3"/>
<path d="M17.6102 54.0281C17.5952 53.9531 17.5729 53.8797 17.5436 53.809C17.5143 53.7386 17.4778 53.6695 17.4356 53.6063C17.3932 53.5423 17.3446 53.4826 17.2904 53.4281C17.2365 53.3742 17.1766 53.3262 17.1123 53.2828C16.9843 53.1978 16.841 53.1385 16.6904 53.1082C16.5392 53.0777 16.3834 53.0777 16.2322 53.1082C16.1584 53.1234 16.0846 53.1457 16.0131 53.175C15.9428 53.2043 15.8748 53.2406 15.8115 53.2828C15.7471 53.325 15.6872 53.3742 15.6334 53.4281C15.5783 53.482 15.5303 53.543 15.4869 53.6063C15.4019 53.7342 15.3427 53.8775 15.3124 54.0281C15.2971 54.1043 15.2902 54.1805 15.2902 54.2566C15.2897 54.4106 15.3199 54.5632 15.3791 54.7054C15.4084 54.7758 15.4449 54.8438 15.4869 54.9081C15.5303 54.9714 15.5783 55.0312 15.6334 55.0862C15.6873 55.1403 15.7472 55.1895 15.8115 55.2315C15.8748 55.2737 15.9428 55.3101 16.0131 55.3394C16.0846 55.3686 16.1584 55.3909 16.2322 55.4061C16.3084 55.4214 16.3857 55.4296 16.4619 55.4296C16.6934 55.4286 16.9196 55.3598 17.1123 55.2315C17.1766 55.1894 17.2363 55.1407 17.2904 55.0862C17.3443 55.0312 17.3936 54.9715 17.4356 54.9081C17.5641 54.7151 17.633 54.4885 17.6337 54.2566C17.6337 54.1805 17.6255 54.1042 17.6102 54.0281Z" fill="#F1CDB3"/>
<path d="M43.5564 30.5741C43.5564 29.5803 43.1667 28.6476 42.4588 27.9481C41.7578 27.2554 40.7992 26.8676 39.8218 26.876C39.5136 26.8793 39.207 26.9208 38.9091 26.9997C36.7391 27.5554 34.6189 28.2902 32.5703 29.1966C31.4004 28.9199 30.2023 28.7806 29.0001 28.7813C28.3231 28.7813 27.6401 28.8257 26.9697 28.9133C26.452 28.9816 25.9381 29.0761 25.43 29.1966C23.3818 28.2903 21.2619 27.5556 19.0922 26.9999C19.0818 26.997 19.0713 26.9942 19.0608 26.9915C17.9075 26.6978 16.718 26.9619 15.7976 27.7171C14.8775 28.472 14.3861 29.5867 14.4493 30.7745C14.5138 31.9938 14.6337 33.2096 14.8087 34.418C14.9658 35.5012 15.1666 36.5776 15.4104 37.6446C15.0476 38.5729 14.7949 39.5405 14.6573 40.5276C14.6001 40.9397 14.5712 41.3553 14.5708 41.7714C14.5708 47.0173 19.1453 51.2853 24.7684 51.2853H33.2321C36.3142 51.2853 39.1977 50.0035 41.1434 47.7686C42.9264 45.7205 43.7076 43.1486 43.343 40.5269C43.2646 39.9648 43.1489 39.4085 42.9968 38.8617C42.8816 38.4498 42.7459 38.0438 42.5904 37.6453C43.1063 35.3878 43.4276 33.0901 43.551 30.7777C43.5547 30.7091 43.5564 30.6416 43.5564 30.5741ZM41.2104 30.647L41.2102 30.651C41.0878 32.949 40.7577 35.2312 40.2241 37.4697C40.166 37.7133 40.1875 37.9692 40.2854 38.1997C40.464 38.6199 40.6153 39.0511 40.7385 39.4907C40.8626 39.937 40.957 40.391 41.0211 40.8497C41.2908 42.7897 40.7063 44.7004 39.375 46.2296C37.8747 47.9529 35.6356 48.9414 33.2315 48.9414H24.7679C20.4373 48.9414 16.914 45.7249 16.914 41.7714C16.914 41.4679 16.9356 41.1574 16.9782 40.8496C17.1055 39.938 17.353 39.0473 17.714 38.2007C17.8123 37.9699 17.8339 37.7138 17.7758 37.4698C17.509 36.3508 17.2928 35.2203 17.1276 34.0819C16.9628 32.9439 16.8499 31.799 16.7892 30.6508C16.7659 30.2148 16.9462 29.806 17.2838 29.5289C17.5311 29.326 17.8315 29.2196 18.1408 29.2196C18.2461 29.2196 18.3527 29.2319 18.4585 29.2571L18.4818 29.2633C20.6611 29.8194 22.7869 30.5674 24.8342 31.4985C25.0815 31.6112 25.3602 31.6346 25.6227 31.5646C26.1654 31.4199 26.7169 31.3106 27.2737 31.2372C27.8429 31.1628 28.4236 31.125 28.9994 31.125C30.1471 31.125 31.283 31.2729 32.3759 31.5646C32.6382 31.6342 32.9166 31.6114 33.1636 31.499C35.2183 30.5646 37.3518 29.8145 39.5391 29.2573C39.6392 29.2333 39.7417 29.2207 39.8446 29.2196H39.8599C40.2101 29.2196 40.5561 29.3632 40.8108 29.6149C40.9383 29.74 41.0395 29.8892 41.1084 30.0539C41.1773 30.2186 41.2126 30.3955 41.2122 30.574C41.2123 30.5983 41.2117 30.6224 41.2104 30.647Z" fill="#F1CDB3"/>
<path d="M31.1978 43.5662C30.6322 43.5662 30.1718 43.1059 30.1718 42.5403C30.1718 41.8932 29.6472 41.3684 29 41.3684C28.3527 41.3684 27.8281 41.8932 27.8281 42.5403V42.5831C27.8281 43.1487 27.3679 43.609 26.8022 43.609C26.155 43.609 25.6304 44.1338 25.6304 44.7809C25.6304 45.428 26.155 45.9528 26.8022 45.9528C27.653 45.9528 28.4309 45.6356 29.0246 45.1135C29.6316 45.6284 30.4019 45.9107 31.1978 45.9099C31.8449 45.9099 32.3697 45.3851 32.3697 44.738C32.3697 44.0908 31.8449 43.5662 31.1978 43.5662Z" fill="#F1CDB3"/>
<path d="M24.9036 38.1664L23.1629 37.3688C23.0098 37.2985 22.8433 37.2621 22.6748 37.2621C22.5063 37.2621 22.3398 37.2985 22.1867 37.3688L20.4459 38.1664C19.8575 38.4359 19.599 39.1314 19.8686 39.7198C19.9327 39.8597 20.0237 39.9856 20.1365 40.0904C20.2492 40.1951 20.3815 40.2766 20.5258 40.3302C20.67 40.3838 20.8234 40.4085 20.9772 40.4028C21.131 40.3971 21.2822 40.3612 21.4221 40.2971L22.6747 39.7232L23.9273 40.2971C24.5154 40.5669 25.2112 40.3082 25.4807 39.7198C25.7505 39.1314 25.4919 38.4358 24.9036 38.1664Z" fill="#F1CDB3"/>
<path d="M37.554 38.1662L35.8133 37.3686C35.6602 37.2983 35.4937 37.262 35.3252 37.262C35.1567 37.262 34.9902 37.2983 34.8371 37.3686L33.0964 38.1662C32.508 38.4357 32.2495 39.1312 32.5192 39.7196C32.7888 40.3083 33.4843 40.5669 34.0726 40.2969L35.3252 39.723L36.5778 40.2969C36.7307 40.3672 36.8969 40.4036 37.0652 40.4036C37.5093 40.4036 37.9342 40.1498 38.1313 39.7196C38.4009 39.1312 38.1425 38.4357 37.554 38.1662Z" fill="#F1CDB3"/>
</symbol><symbol id="arrow-left" viewBox="0 0 14 6">
<path d="M14 2V4H3V6L0 3L3 0V2H14Z"/>
</symbol><symbol id="arrow-right" viewBox="0 0 14 6">
<path d="M0 4V2L11 2V0L14 3L11 6V4L0 4Z"/>
</symbol><symbol id="arrow-double" viewBox="0 0 25 11">
<path d="M10.0055 6.08789L0.972265 10.7852V9.44727L8.48203 5.53125L0.972265 1.625V0.287109L10.0055 4.98438V6.08789ZM24.0766 6.08789L15.0434 10.7852V9.44727L22.5531 5.53125L15.0434 1.625V0.287109L24.0766 4.98438V6.08789Z"/>
</symbol><symbol id="arrow" viewBox="0 0 10 11">
<path d="M9.04102 6.08789L0.0078125 10.7852V9.44727L7.51758 5.53125L0.0078125 1.625V0.287109L9.04102 4.98438V6.08789Z"/>
</symbol></svg>