<svg width="60" height="60" fill="none" xmlns="http://www.w3.org/2000/svg"><path d="M59.657 15.899L44.102.343a1.172 1.172 0 00-1.658 0l-4.142 4.142a1.172 1.172 0 000 1.658l4.92 4.92-4.658 4.66-7.171-7.171a1.172 1.172 0 00-1.658 0l-4.758 4.758a1.172 1.172 0 000 1.657l1.511 1.511L7.065 35.902a4.583 4.583 0 000 6.474l1.491 1.491-2.734 2.735a1.172 1.172 0 000 1.657l2.131 2.13L.343 58a1.172 1.172 0 001.658 1.657l7.61-7.61 2.13 2.132a1.172 1.172 0 001.657 0l2.735-2.735 1.49 1.492a4.548 4.548 0 003.238 1.34 4.548 4.548 0 003.237-1.34l19.423-19.423 1.511 1.51a1.168 1.168 0 00.829.344c.3 0 .6-.114.829-.343l4.758-4.759a1.172 1.172 0 000-1.657l-7.171-7.17 4.659-4.66 4.92 4.921a1.168 1.168 0 001.658 0l4.142-4.142c.458-.458.458-1.2 0-1.658zm-34.921 5.647l5.422 5.422a1.168 1.168 0 00.828.343 1.172 1.172 0 00.829-2l-5.422-5.422 1.752-1.753 10.09 10.09-5.36 5.358-10.089-10.088 1.95-1.95zM12.57 51.692L8.308 47.43l1.906-1.905 4.261 4.261-1.905 1.906zm9.87-.415a2.236 2.236 0 01-3.159 0L8.723 40.72a2.237 2.237 0 010-3.16l1.669-1.669 2.885 2.886a1.168 1.168 0 001.658 0c.457-.458.457-1.2 0-1.658l-2.886-2.885 1.929-1.929 5.421 5.422a1.168 1.168 0 001.657 0c.458-.458.458-1.2 0-1.658l-5.421-5.421 1.928-1.929 2.886 2.886a1.168 1.168 0 001.657 0c.458-.458.458-1.2 0-1.658l-2.885-2.885 1.907-1.908 10.089 10.089-7.62 7.62a1.172 1.172 0 001.656 1.658l7.621-7.62 1.972 1.97-12.405 12.407zm14.064-14.063l-1.971-1.972 5.359-5.36 1.972 1.972-5.36 5.36zm12.458-7.778l-3.101 3.1L27.463 14.14l3.1-3.101 18.399 18.398zm-6.342-9.657l-2.4-2.399 4.659-4.659 2.399 2.399-4.66 4.659zm12.066-.567L40.788 5.314l2.485-2.485L57.17 16.727l-2.485 2.485z" fill="#F1CDB3"/><path d="M22.316 46.72a1.156 1.156 0 00-.7-.853 1.18 1.18 0 00-.677-.066 1.18 1.18 0 00-.853.7 1.157 1.157 0 00.253 1.276 1.157 1.157 0 00.828.344 1.158 1.158 0 001.082-.723 1.151 1.151 0 00.067-.677z" fill="#F1CDB3"/></svg>