<svg width="58" height="60" fill="none" xmlns="http://www.w3.org/2000/svg"><path d="M56.664 19.966L29.692.226a1.172 1.172 0 00-1.384 0L1.336 19.966a1.172 1.172 0 00-.254 1.638l3.525 4.817a1.172 1.172 0 001.638.253l1.064-.778v32.932c0 .647.525 1.172 1.172 1.172h41.1c.647 0 1.172-.525 1.172-1.172V25.941l1.002.733a1.171 1.171 0 001.637-.253l3.526-4.817a1.172 1.172 0 00-.254-1.638zm-8.255 33.12H20.683a1.172 1.172 0 000 2.343H48.41v2.227H9.653V25.105h27.443a1.172 1.172 0 000-2.344H11.593L29 10.021l19.409 14.205v28.86zm3.784-28.995l-22.5-16.468a1.17 1.17 0 00-1.385 0L5.807 24.091l-2.141-2.926L29 2.624l25.335 18.541-2.142 2.926z" fill="#F1CDB3"/><path d="M42.467 23.705a1.23 1.23 0 00-.176-.422 1.181 1.181 0 00-.974-.522 1.18 1.18 0 00-1.081.723 1.137 1.137 0 00-.09.449 1.156 1.156 0 00.09.449 1.19 1.19 0 00.431.525 1.163 1.163 0 00.422.175 1.156 1.156 0 00.879-.175 1.124 1.124 0 00.323-.323 1.183 1.183 0 00.176-.88zM17.61 54.028a1.173 1.173 0 00-1.977-.6 1.185 1.185 0 00-.32.6 1.158 1.158 0 00.321 1.058 1.19 1.19 0 00.829.343 1.183 1.183 0 00.973-.52 1.182 1.182 0 00.174-.88zm25.946-23.454a3.67 3.67 0 00-1.097-2.626 3.726 3.726 0 00-2.637-1.072 3.72 3.72 0 00-.913.124c-2.17.555-4.29 1.29-6.339 2.197A15.472 15.472 0 0029 28.78a15.403 15.403 0 00-3.57.415 40.489 40.489 0 00-6.37-2.205 3.668 3.668 0 00-3.262.726 3.666 3.666 0 00-1.349 3.058 40.26 40.26 0 00.961 6.87 12.76 12.76 0 00-.753 2.883 9.11 9.11 0 00-.086 1.243c0 5.246 4.574 9.514 10.197 9.514h8.464c3.082 0 5.966-1.281 7.911-3.516 1.783-2.048 2.565-4.62 2.2-7.242a12.824 12.824 0 00-.753-2.882 40.46 40.46 0 00.961-6.867c.004-.069.005-.136.005-.204zm-2.346.073v.004a38.16 38.16 0 01-.986 6.819c-.058.243-.036.5.061.73.179.42.33.851.454 1.29.124.447.218.901.282 1.36.27 1.94-.315 3.85-1.646 5.38-1.5 1.723-3.74 2.711-6.144 2.711h-8.463c-4.33 0-7.854-3.216-7.854-7.17 0-.303.022-.614.064-.921.127-.912.375-1.803.736-2.65.098-.23.12-.486.062-.73a37.9 37.9 0 01-.987-6.819 1.345 1.345 0 01.495-1.122 1.345 1.345 0 011.175-.272l.023.006a38.098 38.098 0 016.352 2.235c.247.113.526.137.789.067a13.006 13.006 0 013.376-.44c1.148 0 2.284.148 3.377.44.262.07.54.046.788-.066a38.152 38.152 0 016.375-2.242c.1-.024.203-.036.306-.037h.015a1.364 1.364 0 011.352 1.354c0 .024 0 .048-.002.073z" fill="#F1CDB3"/><path d="M31.198 43.566c-.566 0-1.026-.46-1.026-1.026a1.172 1.172 0 00-2.344 0v.043c0 .566-.46 1.026-1.026 1.026a1.172 1.172 0 000 2.344c.851 0 1.629-.317 2.223-.84a3.354 3.354 0 002.173.797 1.172 1.172 0 000-2.344zm-6.294-5.4l-1.741-.797a1.17 1.17 0 00-.976 0l-1.741.797a1.172 1.172 0 10.976 2.131l1.253-.574 1.252.574a1.172 1.172 0 10.977-2.13zm12.65 0l-1.74-.797a1.17 1.17 0 00-.977 0l-1.74.797a1.172 1.172 0 10.976 2.13l1.252-.573 1.253.574a1.172 1.172 0 00.976-2.13z" fill="#F1CDB3"/></svg>